<svg height="64" preserveAspectRatio="none" viewBox="0 0 64 64" width="64" xmlns="http://www.w3.org/2000/svg" xmlns:xlink="http://www.w3.org/1999/xlink"><linearGradient id="a" gradientUnits="userSpaceOnUse" x1="26.616129" x2="35.104054" y1="22.116194" y2="62.280998"><stop offset=".45" stop-color="#b36638"/><stop offset="1" stop-color="#4d1200"/></linearGradient><linearGradient id="b" gradientUnits="userSpaceOnUse" x1="27.665226" x2="34.499199" y1="13.785199" y2="46.123524"><stop offset=".35" stop-color="#b36638"/><stop offset="1" stop-color="#4d1200"/></linearGradient><linearGradient id="c" gradientUnits="userSpaceOnUse" x1="28.916018" x2="33.778061" y1="6.713432" y2="29.720585"><stop offset=".25" stop-color="#b36638"/><stop offset="1" stop-color="#4d1200"/></linearGradient><linearGradient id="d"><stop offset="0" stop-color="#c6b999"/><stop offset=".8973214" stop-color="#c6b999" stop-opacity="0"/></linearGradient><linearGradient id="e" gradientTransform="matrix(.9970366 .076929 -.076929 .9970366 2.45354 -1.608825)" gradientUnits="userSpaceOnUse" x1="15.739299" x2="29.447987" xlink:href="#d" y1="27.415823" y2="39.160584"/><linearGradient id="f" gradientTransform="matrix(.9970366 .076929 -.076929 .9970366 2.45354 -1.608825)" gradientUnits="userSpaceOnUse" x1="20.612841" x2="31.151356" xlink:href="#d" y1="15.612534" y2="24.641285"/><linearGradient id="g" gradientTransform="matrix(.9970366 .076929 -.076929 .9970366 2.45354 -1.608825)" gradientUnits="userSpaceOnUse" x1="11.115642" x2="25.976833" xlink:href="#d" y1="42.06324" y2="54.795395"/><path d="m29.8930035 21.2311783s26.8141804 13.0564194 28.4230328 21.9161339c1.6088486 8.8597107 0 16.7868233-21.4513474 18.1857262-21.4513426 1.398899-31.6407318-3.7304078-31.6407318-12.5901185 0-18.652029 24.6690464-8.8597145 24.6690464-27.5117416z" fill="url(#a)"/><path d="m30.3035717 13.0726376s21.5891895 10.5122566 22.8845425 17.6455727 0 13.5157566-17.2713547 14.6420689c-17.2713528 1.126316-25.4752455-3.003502-25.4752455-10.136818 0-15.0175076 19.8620577-7.1333161 19.8620577-22.1508236z" fill="url(#b)"/><path d="m30.7930737 6.2064786s15.3596668 7.4789615 16.2812443 12.5539722c.9215813 5.0750103 0 9.6158085-12.2877312 10.4171257s-18.1244068-2.1368465-18.1244068-7.2118568c-.0000001-10.6842313 14.1308937-5.0750089 14.1308937-15.7592411z" fill="url(#c)"/><path d="m18.5682487 29.0586185c.2027168.1563606.4875011.1797352.686615.3215008.208437.1484032.2796936.4765663.4844933.6099033.214159.139431.4326096.2573185.6431446.3813343.2197685.1294518.3437614.4240704.5599823.5379314.2252331.1186066.4525261.2382145.6743679.3412704.2303715.1070156.5622597-.0285358.7894878.0632439.2350864.0949516.310215.6243114.5425072.7046528.238903.0826263.4930286.1656647.7295971.2346916.2418175.0705566.6238346-.3755131.8638763-.3171806.2445374.0594234.4088383.4764824.652235.525322.2455177.049263.4876022.1556396.732687.1963043.2461357.0408363.5109215-.0047531.7573586.0296135.2461166.0343208.5449467-.3371391.792099-.3070755.2460518.0299339.4414806.4969025.6892853.5247879.2441559.0274773.489336.0558586.7358952.0834427.2446365.0273666.4770813.1553078.7247658.1848145.2453251.0292244.4866867.0665131.7356625.0998116.2460003.0329056.5298805-.2090111.7800827-.1702194.2449265.0379791.4347153.3860626.6842728.4314842.2944069.0535851.6203384-.2516441.8154335-.1417503.2585716.1456528.3177071.405117.4092064.6252251.0942612.2267494.4325562.5076637.3585739.7833977-.0598488.2230568-.3543625.4306679-.5188675.6677361-.134922.1944427-.539402.1637154-.741745.3577042-.1746922.1674767-.1233368.6177177-.3464146.7786789-.1991634.1437035-.3165359.4865074-.5529633.6206932-.2156811.1224098-.7139587-.275341-.9596729-.164093-.2270508.1027985-.3316822.5188217-.5836105.6095428-.2356548.0848618-.4246235.3959465-.6814213.468174-.2419758.068058-.5841064-.1903572-.8443336-.1352425-.2465687.052227-.4697323.3141518-.7322464.3532944-.2498055.0372505-.5754757-.5400047-.8393402-.5158577-.2519436.023056-.4896202.0439148-.7540531.053936-.2531872.009594-.4974098.3640671-.7617569.3607521-.2536774-.0031853-.4893398-.3744507-.7530384-.3903656-.2535439-.0153046-.5650005.6336517-.8275833.6058273-.2528896-.0267944-.4406567-.604763-.7017269-.6438446-.2510414-.0375786-.5814037.3708992-.8398285.3213654-.2499619-.0479126-.4599876-.3212242-.7166939-.3808594-.248518-.0577316-.4462662-.3149872-.7009583-.3841934-.246748-.0670433-.6432343.3618774-.8956451.2836189-.2440357-.0756607-.5290394-.0759277-.7782478-.1624718-.2413559-.0838165-.3845577-.4688225-.6306553-.5632095-.2387352-.0915642-.3862019-.4165192-.6292973-.518364-.2357998-.0987854-.7064896.3236656-.9463024.2149048-.2335815-.105938-.1439571-.9086037-.3812618-1.0242805-.2303925-.1123085-.5375814-.0639114-.7714062-.1856575-.2279739-.1187019-.578496-.0135422-.8096609-.1414528-.22505-.1245308-.5231428-.1346207-.7511501-.2680931-.2327709-.1362648-.3226404-.4740791-.4980631-.6334229-.1974764-.1793747-.3253317-.3904915-.4553728-.5924034-.1409359-.2188301-.6208477-.3246765-.6893663-.5612907-.0704155-.2431679-.0236053-.5887527-.0251017-.8410225-.0014763-.249073.2020941-.5205879.2603769-.7690296.056632-.2414055.1923389-.4741726.2985258-.7061901.1035929-.2263546-.0659437-.6562786.0784483-.8655491.1422167-.2061195.5950222-.2087994.7707644-.3906002.1750679-.1811047.2831554-.4714432.4855433-.6208019.2035093-.1501865.6424246.0953522.8675375-.0150337.2272139-.1114159.2818966-.7023659.5249414-.7653275.2433882-.0630474.5731602.499897.8261929.4934139.2478504-.0063515.4724426-.2244492.7236271-.1689529.2376785.0525131.5196056-.00103.755167.1133919.2161653.1050012.4746568.1998041.6850316.3620698z" fill="url(#e)"/><path d="m23.5673218 17.2519646c.2143784.1653538.2281456.601263.4373875.7457409.222414.153574.492754.2448864.7100029.3767757.2311668.1403389.6833878-.129343.9094734-.0112629.2391129.1248817.470293.2093773.7046299.3120766.2458324.1077385.4753075.189003.716938.2754784.2510948.0898609.4329262.3395519.6806736.4100037.255415.0726337.5293903.0206585.7825546.0765705.2576141.0568943.4745483.2805996.7312183.3243217.2584953.0440331.5174809.0709591.7764454.1058846.2583771.0348473.499136.2176571.7594013.2476826.2563267.0295715.5137768.062849.7733002.0918255.256813.0286732.5383835-.1389885.7996483-.1069527.2574997.0315742.4665413.4256382.7296333.4642639.2560234.0375881.5050507.0795727.7675438.1273479.2979355.0542278.6545486-.2303658.8217812-.1040516.2217293.1674786.0924034.4907265.0971489.7425556.0041122.2182426-.0878983.3468151-.2365303.5945435-.1147766.1912956-.1932297.3898277-.3940735.5820885-.1669388.1598091-.1673393.5624332-.3909798.7137489-.1951981.1320724-.584034-.0348415-.8206367.0848274-.2119293.1071911-.423996.2000103-.6678734.293045-.2238846.0854073-.4671249.0838909-.7169666.1541576-.2321072.0652809-.4563637.1131783-.7101021.1628323-.2377033.0465145-.4400978.2974701-.6961517.3281765-.2413368.028944-.5001526-.1910286-.7572651-.1778793-.2434387.0124512-.4796581.3267403-.7367916.3235531-.2443295-.003027-.488575-.1207104-.7448864-.1391277-.2438354-.017519-.5225525.2243347-.7769032.1917973-.2432957-.0311222-.4763641-.2064323-.7289906-.2522469-.241684-.043829-.4324551-.342289-.6824303-.4003983-.2391758-.0555992-.5526447.1674824-.7991905.0980797-.2364807-.0665703-.5344734.0249424-.7775383-.0549698-.2336884-.0768299-.3227806-.5846615-.5623837-.6743946-.2304287-.086298-.5604553.0711117-.7962017-.0276299-.2277927-.0954094-.5382042-.0303059-.7708244-.1377907-.2240791-.1035385-.3425426-.4468555-.5709763-.562006-.2212143-.1115131-.5255013-.0804939-.7506886-.20327-.2177429-.1187172-.2026424-.6543732-.4239998-.7839546-.2515011-.1472282-.3930225-.2558765-.559166-.4364357-.1916599-.2082863-.5253124-.2446499-.6151257-.4822617-.0951309-.2516842.1451988-.502985.1498051-.7689724.0045223-.2611656-.4554253-.5999279-.36903-.8566036.0832329-.2472744.5821686-.3066311.7284927-.5332375.1429577-.2213936.0362873-.6472931.2275295-.8336811.1907024-.1858635.5189571-.2230434.7459564-.3591042.2294712-.1375408.5105438-.0933094.7650852-.1645756.255167-.0714417.4803333-.5032463.7485352-.4925232.2574615.010294.6149654.0129986.8734455.1130791.2332748.0903227.3933185.4487421.6190761.6228735z" fill="url(#f)"/><path d="m13.2118187 43.0308952c.2109776.1627312.0945787.752079.3019915.9003792.2166824.1549301.5473518.1403351.7604322.2803764.2223921.1461601.2769079.5620766.4957047.6930046.2280025.1364365.5267849.1609268.751256.2819366.2337036.1259804.5323572.1264915.7626543.2370071.2384644.1144333.5264568.1074982.7617359.2067413.2433109.1026344.5879879-.0923309.8284092-.0043945.2474785.090519.3912868.4422913.6362705.5189285.2507706.0784492.3723316.620739.6210957.6864624.2537289.0670357.5442963.0345078.796587.0902405.2554092.0564194.6382408-.5276413.892849-.4807892.2561893.047142.5075512.0553856.7636185.0948944.2565365.0395813.506834.0623245.7639427.0963173.2564583.0339088.4776268.3224716.7353439.3528824.2564106.0302582.5311718-.1052322.7895069-.0764046.2544498.0283966.4819069.30867.7388783.337635.2549934.0287399.5136375.0421562.7717495.0733566.2557163.0309105.4848385.2778854.744236.3130608.2564068.0347672.5104218.0786018.7710247.1193275.2553387.0399017.5590191-.194294.8189507-.1469841.2900562.0527916.3318977.6025848.5339203.7057381.262989.134285.2870655.1552315.4064713.3563042.1305027.2197609.6996861.2869377.6665955.5602379-.0278988.230423-.4902191.3409042-.6289883.5914307-.1141014.2059937-.2856483.3293304-.471653.5388031-.1598835.1800499-.2542877.3997307-.4654045.5760803-.1877232.1568069-.1310558.6693268-.3579826.8188782-.2063866.136013-.6756248-.148037-.9134693-.0212479-.2196808.1171074-.4353981.2196732-.6811543.3263969-.2294922.099659-.4904976.0833855-.7421131.1719513-.2367573.0833359-.4631538.1467514-.7189903.2185745-.2422848.0680199-.4066315.4249611-.6655941.4812202-.2463951.0535316-.5508995-.2373238-.8120213-.1956673-.2493649.0397797-.4381027.5076828-.7005768.5355644-.2514057.0267067-.5191498-.1042747-.7823009-.0894241-.2526779.0142632-.5016708.4030876-.7649269.4055901-.253294.0024071-.5163746-.1962128-.7792397-.2054291-.2533607-.0088806-.4862061-.3822441-.7482567-.4025841-.2529621-.0196381-.5472832.3703957-.8081646.339489-.2521687-.0298767-.5513935.1784821-.8108006.1375389-.2510452-.0396233-.3964653-.7126274-.6541443-.7630997-.248909-.0487556-.5779057.26931-.8328705.2099915-.2476225-.0576096-.5697412.1316071-.8229551.063633-.2460823-.0660553-.4004431-.4900856-.6516962-.5662994-.2443123-.0741081-.5679235.0735435-.8170233-.0105019-.2417841-.0815773-.259346-.8003159-.5055466-.8915672-.2392426-.0886688-.471693-.172226-.7150202-.2703133-.235857-.0950737-.6170216.1631775-.856638.0590019-.2342577-.1018524-.3016005-.5684128-.5393791-.679203-.2322378-.1082077-.7847776.4447594-1.0203066.3277969-.2283173-.1133804-.1837845-.7678986-.4151325-.8897133-.2276087-.1198425-.695159.198719-.925643.0705185-.2249289-.1251068-.3311415-.4685516-.558754-.6017952-.2387853-.1397858-.2976685-.4534607-.4813218-.6155396-.2050705-.1809769-.8070059-.0016174-.9479394-.2044983-.153029-.220295-.4005537-.4960518-.4839373-.7345238-.0863109-.2468452.1828313-.6332321.164362-.8908768-.0183787-.2563858.2630749-.4893341.3050637-.7476959.040988-.2522011-.4920664-.6870003-.3999534-.9328957.0896792-.2393951.9577599-.1170006 1.0899854-.3428535.1298084-.2217255.088387-.5090981.2536292-.7106361.1637869-.1997643.1325254-.5761948.3257256-.749218.1933517-.1731567.3277168-.4667244.5451422-.606205.2190323-.1405106.5774994-.0576782.8154745-.1569901.2398663-.1001015.4939833-.1350861.7474766-.186142.2529049-.0509377.5077181-.5119133.7685795-.5068512.2544899.0049362.5723305.1504364.8291264.2154083.2428093.0614357.4579535.3401146.6983004.46101.2213543.11134.6081236.0602765.8238085.2266354z" fill="url(#g)"/><g fill="#b2b2b3" transform="translate(-32.790579)"><path d="m17.900879 6.7128906c-.266113 0-.487305-.2099609-.499024-.4785156-.01172-.2758789.202149-.5092773.478028-.5209961.341797-.014648.536621-.00635.537109-.00635.275391.011719.489258.244629.478027.5200196-.01123.2749023-.222168.4985352-.518554.4790039-.0098 0-.174317-.00586-.453614.00635-.0073.0004882-.01465.0004882-.02197.0004882z"/><path d="m3.5410156 26.132324c-.015137 0-.030762-.000488-.046387-.002-.2749023-.02539-.4770508-.269043-.4521484-.543945.033691-.365235.075195-.717285.125-1.056153.039551-.273437.2944336-.465332.5668945-.422363.2734375.04004.4624023.293945.4223633.566895-.046875.322265-.086426.656738-.1181641 1.003418-.023926.259277-.2421875.454101-.4975586.454101zm4.7509766-2.324707c-.036133 0-.072754-.0039-.1098633-.01221-.402832-.089841-.7768555-.24072-1.1118164-.448239-.2348633-.145508-.3071289-.453613-.1621094-.688477.1455078-.235351.453125-.30664.6884766-.162109.2397461.148926.5102539.257324.8041992.323242.269043.06006.4389648.327637.378418.597168-.051758.232422-.2583008.390625-.4873047.390625zm3.0126958-.489258c-.178711 0-.351075-.0957-.441407-.26416-.130371-.243652-.03857-.546387.205078-.676758.279297-.149414.537598-.325195.766602-.522461.208008-.181152.524902-.157226.705078.05273.180176.209473.156738.524902-.05273.705078-.284668.245117-.603516.462402-.947266.646484-.0752.04004-.155762.05908-.235351.05908zm-6.8886724-1.229004c-.058594 0-.1181641-.01025-.1757813-.03174-.2587891-.09717-.3891602-.385742-.2924805-.644043.1328125-.352539.2749023-.684082.425293-.995117.1196289-.248047.4199219-.352051.6674805-.23291.2490234.120117.3530273.418945.2329102.66748-.1376953.285645-.2680664.588867-.3891602.91211-.075684.200683-.2661132.324218-.4682617.324218zm1.3881836-1.26416c-.2426758 0-.4555664-.176758-.4936523-.423828-.053223-.345215-.081055-.718262-.08252-1.108398-.0009766-.276367.2216797-.500977.4980469-.501953h.00195c.2753906 0 .4990234.222656.5.498047.00146.34082.025391.663574.070801.95996.041992.27295-.1450195.528321-.4179688.570313-.025879.0039-.05127.0059-.07666.0059zm7.7534178-.790527c-.01123 0-.02246-.000488-.03418-.000977-.275391-.01855-.483887-.256836-.465332-.532714l.0059-.163575c0-.228515-.03564-.455566-.105957-.671386-.08594-.262696.05762-.544922.319824-.630371.266602-.08691.544922.05811.630371.319824.103516.316406.155762.647949.155762.98584-.000488.07715-.0029.151367-.0078.22705-.01807.26416-.237793.466309-.498535.466309zm-6.9497068-1.430176c-.1298828 0-.2592773-.05029-.3574219-.149902-.1928711-.197754-.1899414-.51416.00732-.70752.265625-.259765.5478516-.501464.8398438-.718261.222168-.165039.534668-.118164.699707.103027.1645508.22168.1186523.535156-.1030273.699707-.2558594.189941-.503418.401855-.7363281.630371-.097656.09521-.2236329.142578-.3500977.142578zm4.6440428-1.677246c-.05811 0-.117676-.01025-.175293-.03174-.246094-.0918-.480957-.147949-.662109-.158203-.282715.02637-.5854495-.189942-.6035159-.465821-.017578-.27539.1191406-.512207.3950199-.529785.05713-.0034.110351-.0054.159179-.0054.01025 0 .09717.0024.107422.0029.279785.01514.611328.09131.95459.219726.258789.09668.389648.384766.292969.643555-.07519.200684-.265625.324707-.468262.324707zm-5.0893553-.212891c-.041504 0-.083984-.0049-.1259766-.01611-.2675781-.06934-.4277344-.342285-.3583984-.609375.061523-.236816.128418-.480469.2021484-.730469l.088867-.291504c.081543-.264648.3623047-.412109.6259766-.328125.2636719.08203.4106445.362793.328125.625977l-.083984.277344c-.070801.238769-.1347656.47168-.1933594.697754-.058105.225097-.2612305.374511-.4833984.374511zm1.5136718-3.852539c-.083984 0-.1689453-.021-.2470703-.06543-.2397461-.136719-.3237305-.441895-.1870117-.682129.1826172-.320801.3735352-.625488.5708008-.914551.1552734-.228516.4672852-.286133.6948242-.131348.2280273.155762.2871094.466797.1313477.694825-.1826172.267578-.3588867.549804-.527832.846191-.092285.161621-.2612305.252441-.4350587.252441zm2.6186525-3.1962887c-.140625 0-.280762-.059082-.3798829-.1748047-.1796875-.2094726-.1552735-.5253906.0546875-.7050781.2802734-.2402343.5654294-.461914.8530274-.6665039.224121-.1591797.536621-.1083984.697266.1171875.160156.2246094.10791.5371094-.117188.6972656-.263184.1879883-.524902.3911133-.782715.6118164-.09424.080566-.209961.1201172-.325195.1201172zm3.560547-2.099121c-.201172 0-.391113-.1225586-.467285-.3217773-.09815-.2578125.03076-.546875.289062-.6455078.349121-.1333008.691406-.246582 1.021485-.34375.268066-.07666.543457.074219.620605.3393555.07764.2646484-.07422.5424805-.339355.6206055-.305665.089355-.622559.1948242-.94629.3183594-.05859.022461-.118652.032715-.178222.032715z"/><path d="m3.4995117 29.808594c-.2626953 0-.4833984-.205078-.4985352-.471192l-.025391-.507324c-.011719-.275879.2026367-.509277.4785156-.520508.2788086-.01465.5092773.202637.5205078.478516l.024414.491699c.016113.275879-.1943359.512207-.4702148.527832-.00977.000488-.019531.000977-.029297.000977z"/></g><path d="m-9.0032025 10.875456c-6.3277495-.141365-.2447567-4.6767722-.2447567-4.6767722s-5.8743778-4.8025417.453373-4.6611762c6.3277512.1413655-.2489471 4.6657429-.2489471 4.6657429s6.3680801 4.8135715.040331 4.6722055z" fill="#ececed"/><path d="m-8.736868 11.378418-.2773438-.0029c-1.9355472-.04346-3.0146482-.49707-3.2988282-1.3872067-.427246-1.3383789 1.325684-3.015625 2.280274-3.8071289-.914551-.8305664-2.582032-2.574707-2.112305-3.8911133.301758-.8447266 1.310058-1.2553711 3.0825193-1.2553711l.2792969.00293c1.8862305.041992 2.9272461.4780273 3.1826172 1.3330078.3989258 1.3369141-1.5556641 3.0424805-2.6176758 3.8510742 1.0209961.8520508 2.8891602 2.6342773 2.4477539 3.9501953-.2724608.812012-1.2426756 1.206543-2.9663085 1.206543zm-.4125976-4.625c-1.0805664.8525391-2.4238284 2.265625-2.2109374 2.9306641.04834.1508789.361816.6464849 2.3686522.6914059l.2548828.0029c1.3579102 0 1.9331055-.270996 2.0180664-.524414.1933594-.5756837-1.0703125-2.0273438-2.430664-3.100586zm.086914-4.71875c-1.2080074 0-2.0083004.2211914-2.1406254.5913086-.234863.6577148 1.040528 2.1254883 2.0786137 3.0229492 1.4116211-1.0146484 2.7392578-2.4106445 2.565918-2.9921875-.083008-.2768555-.7167969-.5849609-2.2470703-.6191406l-.256836-.00293z" fill="#b2b2b3"/><g transform="translate(-32.790579)"><ellipse cx="23.747046" cy="6.203251" fill="#3e3a39" rx="2.01236" ry="3.333333" transform="matrix(.0223351 -.9997506 .9997506 .0223351 17.01495 29.805822)"/><path d="m23.827148 8.7167969-.13623-.00146c-2.148926-.048833-3.807617-1.189458-3.776367-2.5976612.03125-1.3837891 1.644043-2.4277344 3.752441-2.4277344l.136231.00146c.97998.021973 1.90332.2773438 2.600097.7197266.774414.4916992 1.192383 1.1586914 1.17627 1.8779297-.03125 1.3837892-1.644043 2.4277345-3.752442 2.4277345zm-.160156-4.0268555c-1.626953 0-2.736816.75-2.752441 1.4501953-.01611.7148438 1.129394 1.5375977 2.798828 1.5751953l.113769.00146c1.626954 0 2.736817-.75 2.752442-1.4501953.010742-.4794874-.441407-.8393507-.712403-1.0112257-.537109-.3408203-1.297363-.5463867-2.086425-.5639648l-.11377-.00146z" fill="#b2b2b3"/></g><path d="m30.2104492 62.0615234c-.0009766 0-.0019531 0-.003418 0-16.4331054-.0009765-25.4829101-4.7304687-25.4829101-13.3183593 0-5.0810547 1.7714844-8.6083984 5.5678711-11.0673828-.2329102-.7880859-.3505859-1.6103516-.3505859-2.4521484 0-6.2094727 3.2861328-8.6704102 6.9785156-10.2832031-.503418-.8979492-.7578125-1.8959961-.7578125-2.9746094 0-5.6938477 3.9296875-7.1054688 7.3964844-8.3505859 3.4633789-1.2436523 6.734375-2.418457 6.734375-7.4086914v-.7998048l.71875.3500977c.6367188.3100586 15.5986328 7.6503906 16.5546875 12.9140625.3261719 1.7958984.3564453 3.2177734.0917969 4.4375 3.6152344 2.8925781 5.640625 5.421875 6.0224609 7.5205078.3876953 2.1376953.4726563 3.8535156.2646484 5.3701172 2.8583984 2.6552734 4.4941406 5.0292969 4.8632813 7.0585938.6533203 3.6015625 1.0410156 8.1982422-1.7890625 11.8222656-3.1230469 3.9990234-9.7050781 6.2734375-20.1230469 6.9521484-2.334961.1523437-4.5844727.2294921-6.6860352.2294921zm1.0556641-55.0620117c-.3505859 5.0361328-4.0693359 6.3720703-7.3696289 7.5571289-3.4633789 1.2436523-6.734375 2.418457-6.734375 7.4091797 0 1.081543.3037109 2.0634766.902832 2.9194336l.3579102.5107422-.5771484.2382813c-4.144043 1.7094727-6.9042969 3.9941406-6.9042969 9.5893555 0 .8652344.140625 1.7080078.4174805 2.5048828l.1323242.3798828-.3432617.2109375c-3.7509766 2.296875-5.4238281 5.5117188-5.4238281 10.4238281 0 7.9433594 8.6948242 12.3173828 24.4829102 12.3183594h.003418c2.0800781 0 4.3081055-.0761719 6.621582-.2275391 10.1162109-.6591797 16.4619141-2.8085938 19.3994141-6.5693359 2.5849609-3.3105469 2.2089844-7.6328125 1.5927734-11.0283203-.3369141-1.8554688-1.9345703-4.1035156-4.75-6.6806641l-.1992189-.1826172.0439453-.2666016c.2382813-1.4658203.1669922-3.1499023-.2226563-5.2988281-.3447266-1.8999023-2.3330078-4.2929688-5.9091797-7.1137695l-.2587891-.2041016.0849609-.3178711c.3076172-1.1435547.296875-2.5166016-.03125-4.3222656-.682617-3.7563477-10.7001952-9.5209961-15.3159178-11.8500977z" fill="#40210f"/></svg>