<?xml version="1.0" encoding="UTF-8"?>
<svg id="Layer_1" data-name="Layer 1" xmlns="http://www.w3.org/2000/svg" viewBox="0 0 512 512">
  <defs>
    <style>
      .cls-1, .cls-2, .cls-3, .cls-4, .cls-5, .cls-6, .cls-7, .cls-8 {
        stroke-width: 0px;
      }

      .cls-2 {
        fill: #5f4526;
      }

      .cls-3 {
        fill: #4d371d;
      }

      .cls-4 {
        fill: #624726;
      }

      .cls-5 {
        fill: #49331b;
      }

      .cls-6 {
        fill: #c1ba63;
      }

      .cls-7 {
        fill: #fff567;
      }

      .cls-8 {
        fill: #543c21;
      }
    </style>
  </defs>
  <path class="cls-4" d="m187.33,216l1.44-24.89-.72-9.89-2.83-10.98,1.11-44.43,8.33-51.81,4.94-14.83,8.81-12,14.24-9.67,31.53-3.28,15.08,7.42,11.85,10.92,10.03,21.33,4.41,16.33,7.67,15.89,2.89,51.47-4.22,30.22-3.89,28.2.98,30.54,4.88,30.62,5.92,35.01.66,30.83-6.58,29.33-8.03,23.83-7.67,16.42s-10.67,14.83-11,14.83-12.25,10.55-12.25,10.55l-17.58,1.78-8.33-4.08-15-5.83-11.97-13-7.44-11.67-12.27-25.25-5.06-26.42,2.69-23.08,2.37-21.42-.87-21.25-.78-20.25-3.67-15.33,2.94-10.25,1.15-5.58-2.17-9.67-1.58-10.67Z"/>
  <path class="cls-2" d="m282.82,205.11s-.93-1.16-.93-2.47-1.44-.64,0-2.31,1.67-1.78,1.67-2.11-.69-2.56-.74-3.22-.51-1,0-1.89,0-1.11.81-1.78,1.37-.39,1.37-2.69.67-2.31,0-3.42-1-1.56-.89-2.56.22-1.78.11-2.33-.46-1.78-.95-2.44-1.38-1.44-1.38-2.56,0-.78.22-2.44.44-2.78.22-3.56-.56-3.33-.56-3.33c0,0-.51-2.33-.53-2.78s-.75-.56,0-1.56,1.09-2.33.98-2.89-.22-.83-.56-1.86-.63-1.36-.76-2.25.02-1.15,0-2.24.58-.65-.05-1.76-1.41,3.11-1.08-1.83l.33-4.94s-2.11-.56-2.89-2.22-1.89-4.89-1.89-4.89c0,0-2.8-.67-2.68,1.44s.23,3.78.57,6.89.56,4.33-.33,6.78-1.78,3.56-2.67,6-.56-.22-.56,4.11-3.44,7.46-3.89,8.89.22,4.11-.11,5.44-5.25,3.78-5.62,4.33-1.38.11-2.71,3.67-.33,1.67-2,4.89-2.33,4-1.56,5.89,1.44,1.89.67,4.56-.94,2.33-1.14,3.56-.42,3.11-2.31,2.44-2.08-1.44-2.65-.78-.76,2,0,3,.35.56,0,2-.88.56-.5,2.89,1.71,1.33.6,4-1.78,1.19-1.44,3.15.25,1.85,1.35,3.85-.21,2.56,0,3.11-1.43,3-1.43,3c0,0-.75.78,0,1.22s1.53-.44,1.31,1.56-1.4,1.78-1.64,3-.53,1.44,0,3.22.42,3.22.2,3.67-1.36.22-2.07.78-.73,2,0,2.44,1.51-.56,1.73,2.11-1.78,4.74-.78,6.81.78,2.41,1.22,2.96.78,2.44.11,3.22,1,1.56,2.22,3.33.56,2.89.22,4.44,1.56,6.52,2,7.15.09-.82.93,1.07-.07,1.33.89,3,1.85,2.11,5.18,2.56,5.09-.22,4.93,1.89.18,2.22-.38,4.44-.67,2.89.22,4.67,1.69,2.11,1.51,2.67,0,3.11,0,3.11c0,0-.51.11-.07,1.67s1.33,1.56,1.67,3.11-.78,2.11.22,3.22,2.75.89,3.56,2.33,1,.78.89,4.11-.67,2.67,0,8,.33,4.11,1,6.44,10.82,14.89,10.82,14.89c0,0,11.33-7.32,11.53-9.1s-11.53-95.34-11.53-95.34v-33.44Z"/>
  <path class="cls-8" d="m193.11,366s.56-.86.28-2.82-.17-2.4-.28-4.18-.56-2.67-.56-3.78-.56-1.22,0-3.22.49-3.22.91-3.67.86-3.11,1.31-3.67.78-1.67.89-2.22,0-2,0-2.89-.89-1.89-.89-2.44-.11-.78.44-2.56,1-2.56,1.67-3.56.89-1.67,1.67-3.11,1-2,.89-3.33.28-1.78.03-3.78-.75-2,0-4.11,1.31-1.33.86-3.44-.89-3.67-.89-4-.78-.22,0-3.11.67-6.56.67-7.22-.4-.78.75-1,.14.22,2.25,0,3.44-.56,3.44,1v3.33c0,2,.78,4.33,1.44,6.67s.78,1.11.44,3.78-1.22,3.22-.67,5.22,1.33,3.89,1.67,5.78-.11,2.78,0,4.78.33,3.11-.22,4.89-.89.78-.33,3.78.78,4.67.56,6.33-.39,2.22.14,4.11-.25.78.97,4.33,1.94,3.78,1.47,5.78.14,2.44,0,4.11-1.13.11.15,3.11,1.17,2.03,1.89,3.96,1.72,2.38,2.72,3.82,1.2,1.33,1.77,3.11.01,1,1.35,3,2,1.89,3.89,4.33,2.78,3.22,3.44,4.78-1.44.44,1,2.67,2.33,4.67,2.33,4.67c0,0-.11.67,0,1.44s0,1.67.78,2.89.67,1.44,2.78,3,3.33.22,4.78,3.33,1.78,3.33,3.56,5,1.22.89,2.22,2.89.33-.33,1.78,3.22,1.22,2.44,1.56,4.11,1.11.33.67,3.44-1,4-1.44,4.33.22-.11-.67.89.17.62-2,2.11-2.8,1.11-4.62,1.28-1.93,1.28-4.93.06-3.78-1-6.89-3-2.56-.22-8.44-5.56-7.44-5.11-9-9.33-2.11-6-2.67-7.67-1.78,1.67-1.67-5.22.44-7.78-.56-11.78-6.78-17.89-7.67-18.89-5-5.78-5-5.78Z"/>
  <path class="cls-3" d="m269.11,432.44s.22.22-1.33.56-2.66,1.02-3.28.79-1.06.23-1.95,0-1.67-.38-2.33-.64-.44.52-1.44-.71l-1-1.22s-1.33-.33-1.78-1.11-1.3-1.89-1.32-2.89-.1-1.78,0-2.78.81-.56-.05-2.44-1.19-2.19-1.08-3.59-.6-1.63-.02-2.3-.17-.11,1.15-2.33,3.1-5.78,3.43-6.56.33-.78.56-2,.22-1.89.33-2.78.56-2.56.56-3.22-.11.11-.33-1.78-.67-3.56-.67-3.78.33-2.89.56-3.56.11-2.22.22-2.67-.11-.78.11-1.56.44-3.33.56-4.33.11-1.33.11-2.44.33-3.89.56-4.44.32-.78.55-1.22,0-.33.56-1.78,1-3.67,1.11-4.56.33.28.33-2.97-.22-4.14,0-5.03-.22.44.56-1.67,1.11-3.67,1.33-5.22.33-1,.22-2.78-.22-1.22-.22-2.78-.44-2,0-3.78.67-3.78.89-4.44-.22,1.78.33-1.89.44-3,.56-3.67-.11-.33.44-1.56.89-.11.78-2.78-.11-2-.22-3.22.33-4.89.33-4.89l-.33-2.56s0-.11.22-1.44.56-2.89.56-2.89l.83-1.81s.08-.42.75-.58.25,1,.67-.17.74-2.75.74-2.75c0,0-1.49-.42-1.83-.67s-.75-.33-.67-2-.08-2.67.33-3.08.17-1.58.5-1.83.75-.83.5-1.5-1.17-.92-1.17-1.83.08-2.33-.08-3.17-1.25-1.25-.67-1.67.42-2.33,2-1.5,2.67,2.75,2.83,3.75.67,3.75,1.17,4.42.92-.33,1.08,2.08.42,3.42.83,5.67.17,2,.17,4.92-.17,3.5.5,4.75.33,2.25.42,3.92.67,2.83,1.75,4.25.92,2.17,1.25,3.42,1.08,1.83,1.83,2.08.83-.75.92-1.75,0-.42-.92-4.17-1.08-3.67-1.08-5.17-.33-1.33.08-3.67.5-2.67.83-4.17.58-2.33.75-3.25.72-1,.36-3.08-.61-2.67-.44-3.75.47-3.11.44-3.55.23,2.22-.77-2.86-1-4.08-1-5.08.08-2.42-.17-3.75-.92-2-1.5-3.67-1.33-1.92-1.33-3.42.5-1.83-.25-3.33-1-1.17-1.33-2.5.08-.83-.67-2.5-1.08-1.92-2.17-3.5-1.58-.33-1.67-3.25-.39-6.5-.94-6.5-.33.78-.56,0-.56-3.44-.56-4.11-.78-2.11-.56-3.56.78-2.44.22-2.78-2.33-.67-1.78-2.11,1.11-3.44,1.22-4.33,0-2.33-.33-3.22-1.33-2.33-1.33-3.61.45-2.94.5-3.5-.27-3.56,0-4.56-1.16-2.11,0-3.78,1.5-2.33,1.5-2.33c0,0-.22.22.67,0s1.11-2.67,1.11-2.67c0,0,.22-.22.11-1.22s-.67-1.11-.78-1.44-.89-1.22-.33-1.78-2.56-.22,1.44-.78,5.11-.67,4.78-1.33-1.78-1.44-1.78-1.44c0,0-.44-1.11.22-1.44s.78-.89,1.44-1,.44,0,1.78-.89-.67-.78,1.67-1.56,3.78-1.89,4-.78,2.33,1.67,2.89,1.89.44-.33,1.67-.67,2.38-.22,3.19,1.11.81-1.11,2.7,4.22-1,5.44,1.11,15.33,2.67,9.22,2.89,13.67.44,14.11,1,18,1.78,7.44,2.44,11.33,1.78,9,2.67,14,.33,9.89,1.11,11.67,2.11,5.56,2.89,8.22,3.56,29.33,3.56,29.33c0,0-1.22,8.11-1.89,11.78s-2.22,10.89-2.67,12.67-2.22,14.56-2.22,14.56l-6,15.67-6.94,18.45-10.5,15.11-13,13Z"/>
  <path class="cls-3" d="m256.75,40.33s.6.81.1,2.93-1.82,1.18-1,2.71.32,1.6,1.57,2.53.23-.43,1.58,1.5,1.25,2.67,1.25,4.17-1.96-1.98.33,2.58,2.58,3.5,2.92,5,.98,1.19.36,3.64-1.61,1.28-.61,3.11.92,1.75,2.25,2.75.36.53,2.6,1.72,2.57.69,2.57,2.11-1.42.92,0,1.83,1,.33,2,1.33.33.25,2,2.33.83,1.92,1.67,2.08,1.71-.17,2.15-.5.69-.5,1.19-1.33.92-.92.83-2.5-.42-3.08-.5-3.58-.67,1.58-.17-1.33.42-3.83.25-4.5-.42-1.67-.58-2.25-.39-1.81-1.03-3.03-1.39-1.89-1.72-2.64-1.08-1.75-1.08-2.83.08-2.42.08-3,.5-.92-.08-2.17-1.25-2.59-1.42-2.72-.97.41-1.31-.97-.52-1.72-1.6-3.72-1.33-2.47-2.17-3.19.64-.72-4.26-2.56-8.15.5-8.15.5Z"/>
  <path class="cls-8" d="m253.27,39.31s-.73.36-1.17,1.81.08,1.07-1.17,2.11-2.07,1.78-3,2.67-1.17.62-2.62,1.33-4.64,1.22-5.75,1.78-3.06,1.08-3.83,1.74-.39.37-1.17,1.82-1.14,2.11-.96,2.56.27,1.44,0,2,.06.78-.05,1.89,1.31,1.67,1.6,2.78-.93,2.78-.93,2.78c0,0,.32-1-.73.83s-.49,1.17-1.05,1.83-.78.33-.56,1.89-.14,2.56-.62,2.89-1.27.17-1.6.97,0,3.81,0,3.81h-1.73l-.49-3.22s-1.11.94-1-.58,0-1.97.44-2.64,1.64-1,1.04-2,.29-2.33-1.04-1.89-1.92-.14-1.63.82.3,1.85.07,2.62-.44,1.89-.67,2.44-.11,2.44,0,2.89.52.67.59,1.56.15,1.28,0,1.78.15.11,0,2.11-.15,4.33,1.07,7,2.84,1.78,2.64,6.56-.75,11.44-.86,12.56-.44,2.11-.44,3.56-.46,2,.27,3.11l.72,1.11s-.65,3-1.1,4.22-2.03,2.39-2.3,3.19-.63,2.03-.72,2.64.21,1.83,0,2.5-1.12.22-1.88,1.89-.65,2.44-.65,3.67-.01-.33,0,1.78,1.31,2.33-.23,4.33-1.65,2.22-1.77,3-.11,1.11,0,2.11.11,2.22-.56,4.11-.56,1.22-.89,2.56-.56,2.44-.56,2.44l-1.67,2.44s-1.11.33-2,1-2.65,1.78-2.65,1.78c0,0-.87,1.22,0,1s1.87-.89,2.54-1,1.24-.39,2.73-1.31l1.49-.92s.67-.56,1.33-.33,1.91-.79,3.12-.95,1.77-1.44,2.54-.61.4-.26,1.26.42-.28-.09,1.23.91,1.73.67,2.18,1.67-.8,1.83,1.15,2.14,1.02.53,1.21,1.64,2.68,2.22,2.68,2.22c0,0-.38-.44.96,0s2.78,1.44,2.67,1.89-.67.56.22,1.11-2,1.7-2,1.7c0,0-.44.15-.89,0s1-.37-.44-.15-2.11,0-2.89.67-.25.89-1.51,1-1.82-.33-2.6.22-1.22.67-1.67,1.22-1.37.89-1.74,1.78-.15-1.33-.37.89,0,2.56-.67,4-.89,1.11-.89,1.89.11.67.33,2.11.33,1.89.22,2.78-1.33,1.33-1.33,1.33c0,0-.36-.44-.79.56s-.65-.17-.32,1.69.44,1.2,0,3.64-1,3.44-1.33,3.78-1.44.78-2.11,1.22-1.71.11-2.41.89-1.72,1.32-2.81,3.33-1.52,2-1.48,3.11.96,1,0,1.78-1.4.22-2.18,1.67-1.78,2.44-1.56,3.78.27.28-.03,2.33-.59-.11,0,3.89,1.25,4.56,1.59,6.33.33,2.56.22,3.33-.11.67.78,1.78,1.11,4.22,1.11,4.22c0,0,.11.44.56,1.89s.22.78.44,1.44-.89,1,.33,2,2,.22,2.44,1.22.74,1.44.59,2.33-.37.89.52,2.22,1,1.33,1.33,2,.78.22,1.89.78,1.67,2.35,1.67,2.35c0,0-.58-1.01.77.54s.68,2.22.68,2.22l-.11.56s-.44.33.44,1.56,1,2.11.67,2.78-.67.44-.67,1.67-.33,1.22.22,2.11,1.22.22,1.67,1.33-.91,2.97.6,3.87,2.4.57,2.4,1.24-.33,1.44.22,1.89-.67-1.33.56.44,1.56,3.56,1.78,4.56.44-.33-.67,2-3.22-.22-1.11,2.33,1.89,2.39,2.89,3.31.56,1.25,1,2.58,1,.33,1.44,2.33.67,2,.44,2.89-.56.56,0,2.56.56,0,2,2.56-.22,5.56-.22,5.56c0,0-.44-.44.11.89s1.11-.44,1.44,1.67-.78,2.33-1,2.78-1-.56.22,1.67.89,2.56.67,3.22-.44.44-.22,1.22.44,1.67.33,2.33-.8.91-.9,1.79-.14,2.07.82,2.95-2,1.25-.79,2.67,1.76-.07,1.98,3.71-.36,3.83-.32,5.21-.57,1.9-1.79,3.24-1.89,1.33-2.22,3-.67,2.44-.78,4-.11,1.56-1,3.44-.33,4.11-.33,5.33-.67,1.33-1,2.11-4.44,5.44-4.44,5.44c0,0,.36,1.42,1.11,2.44s1.32-.4.25,2.61-1.03,2.83-1.58,4.5-.44,2.11-.44,3.33,0,.11-.89,2.33-.78,3-1,4,.78,0-.44,1.67-1.33.89-1.33,3,.22,3.56-.11,4.56-20-12.33-20-12.33v-54l8,4.22s-.22.33.11-1.11.67-2.5.33-3.64-1-2.25-1.11-2.8-.56-.44-.44-2.22.11-3.33.11-4.22-.56-1-.22-3.44.44-3.33.44-3.89.33-2.11-.11-3.33-.11-.11-1-2.67-1.56-3.11-1.67-4.67-.22.44-.22-2.67.22-2.22,0-4.56.89-.67-.44-4.22-1.33-2.33-1.33-3.56.11-.56,0-2.33-.22-.22-.33-3-.22-4-.22-4.78.11-1.78.11-1.78l-2.67-7.22c-1-.78-2.67-2.22-2.78-2.67s-.67-2.33-.67-2.89-.11-1.11-.67-3.11-1.67-3.67-2-3.89-1.67-.56-1.44-2.11-.56-7.44-.67-8.61-.98-2.72-1.82-4.83,1.55-5.58,1.85-6.18-.81-1.04.97-1.71,4.08-2.21,4.08-2.21c0,0,.49.17.32-1.42s-.18-2.38-.4-3.38-1.11-1.65-1.11-1.65c0,0-.86-1.24-1.04-2.01s-.62-1.32-.62-1.94-.22-1.4.11-1.62.58-.22.51-.67.07-1.82,0-2.67-1.52.65-.07-.84,1.89-2.05,2.89-3.49,1.49-2.01,1.63-2.89.48-3.22.48-5.66-.56-3.78-.67-6.11,0-5.33,0-5.33l-.94-21.41,1.22-17.25,4.83-53.33,7.67-32.83,6.42-10.17,3.75-5.19s21.78-1.9,22.33-1.96,7.44,2.46,7.44,2.46Z"/>
  <path class="cls-3" d="m262.54,233.61s-.99,1.28-1.43,1.83-.56-.44-.56,1.78-.22,1.22,0,3.44.64,1.22-.51,3.78-1.27.33-1.27,3.11-.78,1.56.44,4.22,1.89,1.11,1.67,4.44-1.22,2.22-.44,4.89-.33.56,1.44,4.56,1.11,1.78,1.89,5-.11,4,1.78,4.22,2.67,2.33,2.11-.67-.78-3-1.11-4.89-1.33-.67-.78-3.89,1-2.67.67-4.78-1.67-1.56-1.11-4.67.56-3.22,1.11-4.67,1-2.11.56-3.78-1.56-2.11-.56-4.44,1.78-3.44,1.78-4.44,0-1.78-.89-2.56-2.43-2.5-2.43-2.5c0,0-1.37-.06-1.53,0s-.83,0-.83,0Z"/>
  <path class="cls-5" d="m239.56,44.53l-4.4,2.92s-1.4,1.33-1.56,1.78-.87,2.11-1.13,2.33-.05,0-1.21,1-2.85,1.89-3.33,2.44-.93.11-2.6,1.89-2.02,1.78-3.57,3.44-1.65.44-1.88,2.33.56-.11-.56,2.72-.67,1.39-1.56,3.5-.33,1.78-1.44,3,.78-1.33-1.11,1.22-2.56,4-2.56,4.78.67-1.89,0,1.67.22.56-1,8-.67,4.56-2.44,11.44-1,5.11-.33,10.33,2.56,2.73.56,6.89-2.43,2.82-2.32,5.35.77.53-.23,5.87-.78,4.56-1,6.33.44-.11,0,3.33.11,2.33-.44,3.44-.78,1.22-.89,2.33-1-.11,0,2.22,1.11,0,1.89,3.44,1.44,1.67.89,4.67-1.22.89-.56,4.22,1.22,1.44,1.11,4.44-.11.78-.22,4-.67,1.56,0,3.67.67,4.44.67,4.44c.5,1.17.83,3.5.83,4s-1.17,1.33-1.5,2.33-.83,1.5-.33,3,.33,2.11,1.5,4.47,1.83,1.86,1.17,3.86-2,4.5-2,4.5c0,0,2.06,3.6.81,4.26s.36,2.74-.81,3.24-1.33.33-2,1.17-.83.17-1.91,1.5-1.42,3.17-2.92.83-.44-3-1.56-3-.5,3.61-2.44,0-2.03-2.74-1.65-4.53,2.69-.86.77-5.81-3.37-5.5-3.58-7.42-1.51-1.92-.94-3.25.23-2.5.57-4.33.5-3.33.5-5v-7.67c0-.83-.17-2.83,0-4.17s.17-4.33.17-4.33c0,0,1.67-3.22,1.67-3.61s.5-1.22.5-3.06-.33-3.5-.33-4.67-.5-2.33-.17-3.67.41-2.67,1.62-3.67,3.1-1.83,3.32-4.17-.39-3.83,0-4.5.07-.44,1.22-2.67,1.09-2.67,1.13-3.83-.15-2.33-.06-3-.04-.11.69-7.56-.17-35.61-.17-35.61c0,0,.57,4.33-1.93,0s-2.83-4.83-3-5.83-.5-5.06.33-6.44,10.5-16.22,10.5-16.22l8.62-6,6.98-2.83s-1.13,1.56,1.33,2.94,3.25,2.5,2.27,3.22-.37,2-.37,2c0,0,2.28-2.04,3.39-2.61s3.83-.06,4.5-1.36,2.34-.69,2.34-.69l2.18.69Z"/>
  <g>
    <polygon class="cls-7" points="181.85 72.97 176.35 77.06 173.85 100.72 177.85 120.89 183.02 124.61 195.85 124.61 212.77 120.06 227.18 112.22 231.27 103.39 225.85 81.72 192.66 73.65 181.85 72.97"/>
    <polygon class="cls-7" points="283.63 95.78 275.93 96.39 262.54 117.11 266.49 124.94 273.09 134.67 282.85 148.06 290.35 154.06 301.35 154.06 314.1 148.83 324.77 131.14 324.77 115.81 312.6 107.81 295.9 99.36 283.63 95.78"/>
    <path class="cls-1" d="m233.21,92.56s-1.56-7.72-1.78-8.06c-.22-.33-2.39-3.89-2.39-3.89l-4.5-1.78-3.33.17-2.06.22-3-2.28-3.56-.67-5.39-2-4.61-.78-4.17-1.39-6.17-1.06-4.33-1.33-5.83.67-2.5,1.5-2,1-3.5,3.67-3.5,8.5v13.28l.5,6.11-.89,2.39,1.67,5.28,1.33,3.56s.67,2.94.67,3.17,2.44,2.83,2.44,2.83l-.44,3.28,1.5,2.67,6.5,1.39,7.06-1.72,6.5-.72,4.56-1.11,3.67-.56,3.67-1,.72-.83,1.72.17,2.28-1.56,2.33-.72,2.61-2,3.11-.33,3.83-2.06,2.72-2,3.06-2.72,1.5-2.83.39-6.33-.39-10.11Zm-5.94,15.94l-2.56,1.22-1.28,1.67-1.33.78-1.78-.89-1.61,1.5-1.67,1.11-1,2.33-2.39.67-3.33,2.5-1.44.17-1.94,1.11-2.33.17h-2.69l-2.14.94-2.11.94-2.06-.44-2.39.61-2.67.94-.5-.89-2.89-.5-1.89-1.44-1.17.39-.5,1.94-2.33-1.11-1.33-2.17-.61-2.22-.61-2.44-.56-3.11-1.11-2.33v-2.56l-1.06-5.11.42-2.92-.42-4.25.56-4.44.28-3.83v-6.83l1.56-1.67,1.11-1.61,1.39-.11,3,.61,3.94-.94,3.67.72,2.61.67h8.33l3.5,1.39,3.33,1.56,3.67-.39,1.83,1.33,2.94.28,3.22,1.39,1.67,1.94,3.78,1.72,1.17,6.89.39,8.44-.67,6.28Z"/>
    <path class="cls-1" d="m221.77,159.11l.22-2.67,1.56-2.94,3.89-2.5,4.78-1.78,2.83-.39h3.78l3.17,1.5,1.78,1,2.17-.11,4.89.39s2.56,1.22,2.72,1.28,1.72,2.22,1.94,2.5,2.33,2.61,2.33,2.61v1.11l2,1.44,1,2v1.89l-.78.56-1.28-1.78-2.5-1.67-2.67-1.83-3.11-2.28-2.28-.53h-4.83s-2.72-.08-3.28-.31-3.89-2-3.89-2l-3.56-.89-3-.11-2.39.44-2.22,1.89-1.72,2.56-1.56.61Z"/>
    <path class="cls-1" d="m244.71,165.39l4.22,1.61,2.89,1.39s2.5.61,2.67.61,3,.33,3,.33h2.33l.22.83s-2.28-.17-2.5,0-4.17,0-4.17,0l-3.83-1.39-3.17-1.72-1.67-.83v-.83Z"/>
    <polygon class="cls-1" points="211.68 65.39 214.52 61.56 219.43 55.81 224.93 51.39 231.35 46.39 241.1 41.47 253.27 38.47 241.52 43.39 234.35 47.56 228.43 50.81 223.68 55.06 218.27 59.31 214.68 62.97 213.02 65.39 211.68 65.39"/>
    <path class="cls-1" d="m222.65,51.56l3.89-4.33,5.22-3.83,6.44-3.17,5.72-1.75,8.17-.97-3.78,1.5-7.11,1.39-5.5,2.83-5.17,2.67s-3.22,2.56-3.39,2.61-3.17,2.5-3.17,2.5l-1.33.56Z"/>
    <polygon class="cls-1" points="223.93 46.5 226.93 44 230.82 41.56 234.77 39.67 240.15 37.5 246.38 36.78 240.21 38.83 234.21 41.06 230.1 43.33 225.71 45.78 223.93 46.5"/>
    <polygon class="cls-1" points="233.6 52.56 237.38 47.81 240.85 44.53 244.77 41.64 255.85 36.78 245.68 43.14 240.85 46.5 237.02 49.64 233.6 52.56"/>
    <path class="cls-1" d="m197.93,74.39l1-3.92.75-2.17,1.58-4.17.69-2.17,2.64-2.33,1.83-2.92.92-2,2-2.79,2.33-1.96.33-1.08,3-1.42,3.67-1.58,2.42-1.22,3.25-.94,3.58-1.75,1.92-1.75,4.28-.25,8.47-1.5,3.32-.24,3.24.43,4.11.64,5.42,1,3.25,1.33,2.42,2.25,4.58,2.61,4,2.81,2.58,1.92,1.75,3.25,1.5,2.75,3,2.5,2.08,3.58,1.25,3,1.25,3.42,1.58,1.92,1.33,1.33.42,1.42,1.5,3.08.75,3.08,1.17,1.83-2.17-1.58-1.08.58-.42,1.75,1.5,2.33.25,2.08,1.25,2.42.67,2.92,1,2.5.42,2.42,2.67,3,8.08,1.67-1.67-3.11-.17-2.31-1.5-2-1.33-1.08-.33-3.92-1.67-1.67-1.25-1.08-.67-4.33-.92-2.92-2.08-3.08-.92-2.67-.83-2.25-1.17-1.7-1-1.38-.33-2.25-.25-1.33-.75-.92-1-1.5-.25-.92.33-1.67.08-.58s-.58-1.25-.67-1.5-.5-1.25-.5-1.25c0,0-.42-.67-.58-1s-.33-.58-.5-.92-.33-.67-.5-1.17-.67-2.08-.83-2.04-.25-.21-.58-.79-.58-.58-1-1.42-.75-1.33-.75-1.33c0,0-.5-.5-.67-.75s1.33.56-1-1.14l-2.33-1.69-1.17-.92s-.92-.42-1.33-.58-.83-.42-1.17-.5-1.67-.58-1.67-.58c0,0-.67-.17-1.25-.92s-.75-1.08-.92-1.33-.67-1.25-.92-1.5-.83-.97-.83-.97l-.92-1.53s-.33.17-1.58-.75-.83-.58-1.58-1.08-1.67-1-1.92-1-.42.25-1.25,0-2.5.25-2.92,0-2.08-.42-2.08-.42c-1.08-.5-2.08-.83-2.33-.83h-.58c-.33,0-.75-.5-1.67,0s-1.58.58-1.58.58l-1-.17s-.83-.17-1.08-.17-.25-.17-1.08.17.17.75-2.58.92-3.33.17-3.33.17c0,0-2,.33-2.25.33h-1.31c-.44,0-1.28-.08-1.78-.08s-1.42-.17-1.92-.17.5-.5-1.21.08-2.71.92-3.37,1.25-.83.67-1.83.75-2.92.17-3.33.33-1.17.28-2.08.89-2.08.94-2.58,1.19-.08-.33-1,.5-2.67,2.17-2.67,2.17c0,0,.33-.25-1.25.5s-2.33.75-3.33,1.5-.92.42-1.75,1.42-.75,2.22-1.42,2.44-.92.56-1.58,1.06-1.33.83-1.67,1.25-1.25,1.08-1.5,1.83-.39.83-1.19,1.92-1.39,1.75-1.72,2-.83.83-1.08,1.17-1.08,1.5-1.17,1.83-.42,1.08-.67,1.42-1,1.58-1.17,2-.75,1.42-1.08,2.33-.75.58-.67,1.75-.01,2.01-.01,2.01c0,0-.32.74-.66,1.49s-.58,1.33-1,1.92-1.25,1.42-1.25,1.42l1.75,2.5h4.75Z"/>
    <path class="cls-1" d="m278.1,67.26l-1.04-4s-.58-1.5-.83-2.17-.79-1.79-1.12-2.29-1.12-1.12-1.71-1.88-1.17-1.08-1.5-1.58-1.5-2.08-1.5-2.08c0,0-.54-1-.79-1.33s-.42-.62-1.04-1.33-1.04-1.21-1.42-1.62-1.75-1.75-1.92-1.92-1.12-1.33-1.12-1.33c0,0-1.17-1.46-1.33-1.58s-1.75-1.12-2.17-1.29-1.62-.88-1.62-.88l-3.13-1.29-1.67-1.75,4.38-2.46,9,7.71,1.83,4.46s1.38,1.83,1.58,2.04.67.67,1.04,1.25,1.33,2.33,1.46,2.5,1.08,1.25,1.33,1.58,1.42,1.62,1.62,2,.83,1.62.92,1.83.29.75.46,1.33.62,2.17.67,2.46-.17,1.71-.21,2.04-.17,1.58-.17,1.58Z"/>
    <path class="cls-1" d="m268.1,56.64v-2.67s-.12-.67-.21-1-.33-.88-.5-1.1-1.38-1.9-1.38-1.9c0,0-.83-.88-1-1.12s-.92-1-1.08-1.38-.71-1.46-.71-1.46l-1-1.35s-.54-.53-.71-.69-.75-.67-.75-.67l-.79-1.29-2.38-2.04-1.46-1.17-.29,2.17s.92,2.17,1,2.29.25,2.29.29,2.46.25,1.29.33,1.58.08-.25.08.62,0,1.29-.08,1.67-.25,1.5-.25,1.62.12,1.96.12,1.96l.62-.29s.42-.96.5-1.33.17-1,.17-1.29.04-1.33.08-1.54.21-1,.21-1l.42-.67.25.83v1.42s.21.83.38,1.29-.08.25.38,1.33.79,1.75.83,1.88.33,2.12.42,2.42.33,1.04.54,1.42.25,1.5.33,1.71.17,1.37.29,1.58.38,1.88.42,2,.29,1.25.38,1.46.42,1.37.46,1.54.38,1.96.38,1.96c0,0,.29-.51.33-.82s.21-1.68.21-1.68c0,0-.12-.46-.12-.92s-.17-2.08-.21-2.21-.08-1.21-.21-1.46-.75-2-.75-2l-.25-1.62-.04-1.25-.38-1.29-.29-1.29-.25-1.42-.46-.67v-1.75l-.25-.75-.25-.88-.29-.83-.21-.56-.04-.44.58.44s.29.68.67,1.01.62.46.92.75.5.71.67.83.5.54.83,1,.62,1,.79,1.25.88.87.94,1.21.27.71.35.79.58.88.58.88l.33.79.21.79.29.83Z"/>
    <path class="cls-1" d="m228.97,43.64l1.55-.54,2.58-1.04s.83-.46,1.17-.42.93.07,1.23-.08,1.88-.42,1.88-.42c0,0,1.94-.02,2.14,0s.06-.43.46-.38.33.2,1.5,0,.99-.26,2.04-.2,1.12-.04,1.88-.02.96-.06,1.54.15.33.42.42.71.54.7.54.7v.47s-.71.71-.88,1.08-.88.69-1,.89-.75.61-.96.86-.63.54-.83.75-.37.46-.46.71-.17.54-.21.67-.13.42.29.42.75.17.88,0,.5-.54.58-.71.21-.53.46-.72.22-.44.61-.65.51-.5.93-.79.67-.45.83-.79.46-.71.62-.84.37-.46,1.08-.67.46-.33.71-.21.71.33.38.67-.88.8-1.25,1.05-.83.66-1.04.83-.62.67-.71.79-.29.56-.29.61v.39s-.08.33.5.08.75-.33,1.12-.79.58-.54.83-.75.71-.76.71-.76c0,0,.21-.25.42-.14s.46.74.33.94-.21.93-.21,1.03.29.56.42.64.5.21.58-.17.25-.75.25-1.25-.21-1.16,0-1.45.67-.75.67-.75c0,0,.42.17.54.25s.42.21.37.33-.03.33,0,.92.16,1.14,0,1.49-.21,1.01-.21,1.01c0,0-.33.46.29.12s.5-.42.94-.88.48-.62.64-.79.33-.5.5-.58-.21.04.17-.08.13-.26.58.08.25.84.62.76,1.5-.62,1.04-2.25-3.13-6.58-3.13-6.58l-11.17-.53-6.88,1.32-6.78,3.46-1.85,2.08Z"/>
    <path class="cls-1" d="m327.93,121.83c-.06-.61-.11-1.22-.22-2.33-.11-1.11-.17-1.11-.28-1.72-.11-.61-.28-1-.67-2.28-.39-1.28-.5-.94-.5-.94,0,0-.06-.5-.28-.94-.22-.44-.11-.78-.72-1.72-.61-.94-.5-.67-.72-.89-.22-.22-.44-.56-.94-1.06s-1.5-.89-1.94-1.17,0,0-.33-.17c-.33-.17-1.5-.44-2.5-1.06-1-.61-.44-.56-.78-1.06-.33-.5-.67-.72-2.22-1.33-1.56-.61-.89-.28-1.67-.61-.78-.33-.61-.39-1.06-.67-.44-.28-.83-.39-1.39-.44s-.5,0-1.06-.11c-.56-.11-.83-.39-1.06-.61s-.22-.28-.72-.78-.44-.56-1.06-.83c-.61-.28-.67-.28-1.94-.56-1.28-.28-.67-.28-1.5-.5-.83-.22-.78-.69-1.5-.72-.72-.03-1.06-.61-2-.89s-1.56-.44-2.67-.78c-1.11-.33-1-.39-2.39-.72-1.39-.33-.56-.17-1.5-.27-.94-.1-.72-.29-1.5-.79-.78-.5-.94-.39-1.89-.93-.94-.54-.72-.19-1.44-.3-.72-.11-.44,0-1.44.06s0,0-1.44-.06c-1.44-.06-.28-.06-1-.28s-.78-.06-1.5-.17c-.72-.11-.72-.06-1.89-.17-1.17-.11-1.33.32-1.33.32l-.72.75h-.67s-.72-.63-1.06-.75c-.33-.11-.83.89-.83.89l-.29.2s-.14.1-.99-.09c-.85-.18-1.22.28-1.94.67-.72.39-.33.17-1,.72-.67.56,0,0-.83.67-.83.67-.89.78-1.44,1.39-.56.61,0,0-.5.56s-.22.33-.22.33c0,0-.61,1.39-1.22,2.44-.61,1.06-.17.61-.39,1.39-.22.78-.06.33-.44.94-.39.61-.56,1.06-1.17,1.89-.61.83-.22.28-.89.94s-.22.28-.83.94c-.61.67-.17.33-.44,1.06-.28.72-.17.39-.39.83s-.33.56-.67.89c-.33.33-.56.67-1.22,1.39s-.39.44-.89.94-.39.83-.61,1.28-.39.89-.39,1.61-.17.94,0,1.83c.17.89-.06.28.28,1.33.33,1.06.17.33.39.72.22.39.5.78.67,1.11.17.33,0,0,1.06,1.28,1.06,1.28.61.61.83.94.22.33.67.83,1.06,1.39.39.56.39.67.61.92s.44,1.13.5,1.41.28.72.56,2,0,.39,0,.67.22.5.56,1.11c.33.61.44.72.67,1.22s.67,1.39.83,1.72c.17.33.33.67.33.67,0,0,.11.28.44.78.33.5.72,1,.94,1.28.22.28.39.33.39.33,0,0,1.28.89,1.72,1.22s.61.5.89.89c.28.39.83,1,1.11,1.44.28.44.56.78.78,1.06s.56.67,1,1.33.17.44.28.83c.11.39,1.44,2.28,1.61,2.56.17.28.44.39,1.33.94.89.56.33.28.78.83.44.56.83.78,1.33,1.28s1.11,1.33,2.28,2.83c1.17,1.5.78.61,1.89,1.5,1.11.89.89.89,1.11,1.17.22.28.5.33,1.89,1.5,1.39,1.17,1,.61,1.56,1s.94.11,1.5-.05c.56-.16.89.16,1.56,0,.67-.16,1.22,0,1.83-.43.61-.42.94-.03,1.61-.42.67-.39.56-.22.56-.22,0,0,2.61,1,3.06,1.06.44.06,1.06-.11,4.33-1.11s2.33-.89,2.78-1.22c.44-.33.89-.44,1.33-1.11.44-.67.78-.39,1.06-.56.28-.17.67-.39,2.72-2.28,2.06-1.89.67-.44,1.67-1.11s.72-.56,1-1.11c.28-.56,1.06-.83,1.56-1.33s1.17-.72,1.28-.94c.11-.22.5-1.22.72-1.72.22-.5.17-.72.33-1.61.17-.89.39-.78.56-1.06s.28-.83.28-.83c0,0,1-.28,1.67-1,.67-.72.44-.67.72-1.22.28-.56.89-1.28,1.33-2.17s.78-1.11,1.22-1.89c.44-.78.44-1.17.67-1.78.22-.61.56-1.83.72-2.78.17-.94.11-.94.33-1.83.22-.89.44-1.56.78-2.89.33-1.33.28-1.11.28-2.33s.06-1,0-1.61Zm-4.88-3.15c-.12.75-.21.5-.46,1.38s-.29,1.25-.08,1.92c.21.67.33.12.29,1.33-.04,1.21.25.71-.12,1.75-.38,1.04-.46,1.08-.54,1.62-.08.54.17.75.29,1.29s.25.46.17,1.33c-.08.88.38.62-.46,1.5-.83.88-1.12.79-1.33,1.38-.21.58-.33.67-.5,1.29s-1.92,3.04-1.92,3.04c0,0-.92,1.04-.96,1.58s.12,1.04-.25,1.58c-.38.54-.12.46-.58.96-.46.5-1.12.75-1.42,1.21s-.46.21-.67.88c-.21.67-1.12,2.38-1.12,2.38,0,0-.42.75-.83,1.21-.42.46-.96.96-1.33,1.21s-.04-.17-.88.46c-.83.62-.96.35-1.54.86-.58.51-.88.51-1.08.72s.04.12-.75.58c-.79.46-.38.29-1.29.67s-.38.12-1.29.46c-.92.33-1.04.25-2.79.33s-1.79-.17-2.33,0c-.54.17-1.25.12-1.54.33-.29.21-.67.38-1.5.38s-2.5.29-2.92,0c-.42-.29-.46-.08-1.33-.62-.88-.54-1.29-.62-1.54-.88s-.12.08-.96-.71c-.83-.79-1.04-1.03-1.25-1.26-.21-.24-.71-.9-1-1.24-.29-.33.12-.25-.75-.71-.88-.46-1.25-.79-1.25-.79,0,0-.17.04-.25-.25-.08-.29-.04-.42-.33-.88-.29-.46-.21-.29-.71-.96-.5-.67-.83-.96-1.04-1.25-.21-.29-.71-1-1.04-1.33-.33-.33-.62-.25-1.04-.42-.42-.17-.46-.08-1-.33s-.62.08-.88-.42-.42-.79-.62-1.46c-.21-.67-.29-1-.5-1.29-.21-.29.21-.12-.54-.67s-.71-.42-1.04-.75c-.33-.33-.75-.46-1.29-1.29-.54-.83-.42-.71-.71-1.04-.29-.33-.54-.25-.79-.75s-.5-.67-.5-.96.29-.33,0-.96-.42-.83-.58-1.12c-.17-.29-.42-.58-.62-.92-.21-.33-.29-.38-.5-.62-.21-.25-.08-.08-.54-.58s-.96-.75-1.12-.96c-.17-.21-.38-.21-.5-.58s-.17-.58-.46-.92c-.29-.33-.62-.25-.75-.56s-.33-.44-.62-.98c-.29-.54-.58-.88-.71-1.12s-.5-.54-.75-.96c-.25-.42-.75-1.12-.75-1.12,0,0-.25-.08,0-.92s.25-.62.46-1.54c.21-.92.25-.96.21-1.38-.04-.42-.08-.38-.17-.88-.08-.5-.54-.04-.12-.71.42-.67.42-1.04,1.04-1.33.62-.29.71-.42,1.04-.79.33-.38.58-.71.58-.71,0,0,.21.04.5-.54s.33-1.17.62-1.54.33-.79.58-1.12c.25-.33.58-1.17.92-1.42s.33-.33.79-1.04c.46-.71.75-1.5,1.17-1.96.42-.46.38-.71.54-1,.17-.29.33-.96.67-1.42.33-.46.29-.54.71-1.12s.54-.67.75-1.08c.21-.42-.08-.54.58-1.04.67-.5.08,0,1.04-.75s.71-.71,1.29-1.12c.58-.42.21-.46.92-.42.71.04.92.17,1.33.33.42.17-.42.21.75.33,1.17.12,1.75-.29,1.75-.29l.62.04s-.12.17,0,.46c.12.29.62.88.83.96.21.08,0,.17.88.46s-.38-.08,1.83.58c2.21.67,1.62.54,2.46.75.83.21,1.25.5,1.62.88s.08.17.71.54.17.38,1.25.83c1.08.46.92.42,1.71.62.79.21.88.17,1.25.21.38.04.38.08,1,.46s.25.29,1.08.75c.83.46,1.67.83,2.12.96.46.12.67.46.79.75.12.29.21.54.96.75.75.21.58.25,1.12.33.54.08.67,0,1,.08.33.08,1.5.58,1.67.71.17.12.04.17.5.33.46.17,1.25,0,1.54,0s.29-.17.83.33c.54.5.58.67,1.33,1.04s-.46.46,1.25.42c1.71-.04,1.67-.4,2.17,0s.71.91.79,1.2c.08.29-.46.42,0,.88.46.46.58.62,1,.88s.33.17.79.46c.46.29,1.5.88,1.79,1.04.29.17.75.46,1.12.75.38.29.5.46,1.33.58.83.12.62-.08,1.33.25s.79.38,1.04.58c.25.21.46.88.33,1.62Z"/>
    <path class="cls-1" d="m190.1,126.78v1.17s.11.17-.22,1.06-.17.17-.39,1.06-.33,1.06-.56,1.89-.22.17-.28,1.5-.06,1.17,0,2.39-.06.33.06,2.17.22,1.17.11,2.61-.19,1.83-.21,2.17-.13-.33.26,1,.56.28.28,1.56-.41.61-.57,2-.21.89-.27,2.17.06-1.33,0,1.72.17.61-.06,3.06-.22,1.72-.28,3.67-.22,1.44-.06,2.72-.11,1.06.28,1.89.5.61.44,1.67-.33,1.44-.5,2.11.02-1.37-.29,1.48-.37,1.69-.32,2.85,0,.89.22,2.06-.06.67.28,2.06.28,1.39.39,2,.22.89.61,1.11.83.67.94,1.39-.19,1.11.13,1.5.15.28.59,1.11-.39.83,1.06,1.28,1.06-.39,1.06-.39l.5-.11s.33-.5.56-.61.94-.72.94-.72c.39,0,.56.72.56.72,0,0,.11-.06,0,.28s-.17.65-.5.96-.61.37-.94.76-.39.44-.67.78-1.17.83-1.33,1-.53.39-.46.56.48.14.48.14h.28s.14.03.47-.11.5-.28.58-.33-.11-.08.28-.31-.06-.22.69-.36.89-.31,1.33-.42.28-.17.61-.19.17,0,.75-.17.64-.19.83-.28-.06-.14.19-.08.78.06.36.64-.56.69-.86.86-.39.19-.83.36-.75.26-1.03.39-.67.11-.86.47-.11.44-.5.64-.92-.03-1.11.42-.69.58-.08.69.69.17,1.31.14,1.39-.11,1.78-.11.53-.03.92.03.39.06,1.03.11.06.03.89,0,.81-.03,1.28-.06.69-.14,1-.14.53,0,.89-.06.17-.06.78-.14.44-.06.86-.14.33-.08,1.03-.31.64-.33,1.06-.33,1.06-.17.92.19-.19.61-.94.75-2.72.72-3.03.81.06.19-.72.22-1.86.14-2,.14.11-.14-.72,0-.89.19-1.72.22-1.44,0-1.89,0-1.14-.11-1.61-.17-1.47,0-1.56-.06-.56-.33-.72-.36-.72-.28-.67.11-.03.53.39.75,2.29.69,2.29.69c.88.17.87.04,1.79.33s.85.25,1.49.38.47.08,1.31.21,1.04-.21,1.67,0,1.25.71,1.88.92,1.42.17,1.58.21.54.21-.33.42-1.58.25-2.12.21-1.13-.12-1.71-.33-1.62-.46-1.62-.46c0,0-.11-.04-.64-.04s-.9-.17-.9,0,.79.75,1.54,1.17,1.25.75,1.96,1.25.46.54,1.46,1.08.71.42,1.42.75,1.25.62,1.92,1,.83.54,1.58.92.54.33,1.25.67-.5,0,1.42.71,3.21,1.21,3.21,1.21c1.04.38.33.17,1.58.58s.29.25,1.54.5.79-.12,1.25.25,1,.58,0,.38-1.54-.17-2.54-.33-1.75-.17-2.17-.33-.79-.38-1.92-.83-2-.58-2.21-.75-.67-.42-1.54-.88-.04,0-.88-.46-.71-.25-1.88-.88-2.04-1.33-2.46-1.54-.67-.29-1-.42-.75-.12-1.38-.5-1.25-.46-1.38-.71-.33-.87-.67-1.08-.75-.79-.71-.12.42,1.38.79,1.75.25.67.42,1,.46.42.04.5-.79.17-1.04.08-.87.04-1.42-.42-.29-.04-.67-.62-.29.04-.83-1.12-.83-1.46-.96-1.71-.38-.96-.62-.88-.54.21-.33.88.71,1.62.83,1.88.42.75.71.96.5.58.75.88.21.29.79.88.67.67,1.38,1.08.5.17.96.71.21.75-.25.62-.17.25-1-.42-1.04-.79-1.42-1.17.33-.21-.67-.62-.79-1.08-1-.42-.46,1.08-.38,1.5.12.79.12,1.5-.42.37-.58,1.58-.67,1.58-.67,1.58c0,0-.12.29-.12.92s-.17.83-.12,1.33-.04.42.08,1.33.12.79.25,1.54-.08,1.04.21,1.75.29.62.58,1.58.17.21.17,1.5-.08,1.29-.08,2.33-.08,1,0,1.71,0,.38.08,1.12,0,1.17.25,1.58.25.75.75,1,.29.25.79.38.21,0,1.04,0,1.04.13,1.25-.33.5-.58.29-1.25-.25-.29-.38-1.25-.21-.38-.25-1.58-.08-.71-.08-1.71v-1.79c0-.62-.17-.75.04-1.12s0-.5.33-.79.21-.5.33-.29.08.92.12,1.38,0,.33-.04,1-.21.83.04,1.62.17.62.42,1.33.33.92.46,1.17.21.92.62.21.42-.88.42-1.21-.08-.92,0-1.29.25-.92.25-.92c0,0,0-.63.33-.08s.29,1.04.17,1.58-.21-.08-.25.75-.21.92-.04,1.42.17.75.67,1.21.04.75.79.5.67.04,1.04-.62-.33.25.54-.92,1.29-2.08,1.29-2.08l.25-.5s-.29-.88.29.04.33,1.13.29,1.58-.04.79-.04,1.04-.62.42,0,.25.96-1.04,1.21-1.29.42-.54.71-1.04.21-.46.54-1,1.04-1.75,1.17-2.04.25-.58.12-.29,0,.67-.21,1.12-.38-.04-.46,1.25-.17,1.21-.29,1.67-.46.83-.71,1.21-.54.54-.67,1.12-.46,1.65-.67,2.01-.33.4-.33.82-.08.46-.42.67-.5.25-.67.71-.08.62-.08.62c0,0,.21.13.75.79s.58.75.92,1.5-.12.92.54,1.42.88.54,1.46,1.21.71,1.46.79,2.04.42,1,.46,1.62.04.79-.21,1.08-.42.04-.62.71-.37.71-.29,1.21-1.29.96.33.75,1.42-.25,2.04-.5.88-.46.88-.46c0,0,.46-.17.54.17s.04,1.08-.08,1.25-.67.38-.71.58.42.62.46,1.12-.04.79-.33,1,0,0-.67.42-1.17,1.54-1.17,1.54c0,0-.33-.17,0,.5s.42.58.67,1.12.04.96,0,1.17-.33-.13,0,.46.54.67.62.96-.25.37-.29.67.88.79-.04.29-.83-.62-1.25-.71-.88-.58-1.17,0-.21.92-.42,1.25-.29.67-.67.38-1.17-.96-1.42-1.33.17,0-.71-.96-1.25-1.04-1.58-1.62-.88-1.25-.88-1.25c0,0,.33.33-.33-.42s-.33-.46-1.08-1.04-.83-.71-1.25-.92-.83-.38-1.42-.75-.75-.5-1.17-.67-.67-.17-1.33-.58-1.79-.54-2.92-1.46-2.04-1.75-2.08-1.88-.5-1.17-.58-1.38-.08-.38-.21-.58-.17-.25-.46-1-.36-.37-.53-1.17-.18-.79-.34-1.5-.21-.58-.33-1.04-.17-.54-.38-1.5-.88-3.21-.88-3.21c0,0-.25-.29-.42-.71s-.21-.33-.25-.58.04.58-.21-.88-.25-.67-.33-1.71-.17-.79-.17-1.62-.08-1.17,0-2.42-.04-1.5-.04-1.5c0,0,.2-.37.33-1.33s.08-.08.12-.96,0-2.75,0-2.75c-.04-.38-.25-1.5-.25-1.83s0,.25,0-.62.04-2.62.04-2.62l.46-1,.54-1.96c.25-.54.25-1.92.25-2.08s-.08-.71-.08-1-.04-1.5-.04-2.08-.08-1.08-.08-1.33,0-1.08.21-1.88.17-1.04.29-1.62.04-1.42.17-1.96.17-.71.25-.96.17-1.25.17-1.62,0-.83-.08-1.33-.25-.58-.25-1.12.17-1.54.21-1.83.04-.37.04-.67.08-.38-.04-1.08.13-.37-.33-1.29-.42-.75-.54-1.08.21.17-.12-.33-.29-.21-.75-1.21-.71-1.17-.79-1.5-.08,0-.29-1.33-.21-1.33-.29-2.29.12-.38,0-1.46,0-.75-.02-1.79-.1-1.33-.02-1.58.44-2.81.44-2.81q.11-.33,0-.78c-.11-.44-.22-.72-.22-.72,0,0-.07-.39-.26-.72s-.46-.56-.35-1.11-.5-.5-.03-1.17.41-.72.64-1.33.17-.78.22-1.28,0-1.28-.11-1.67.11-.17-.22-.72-1-.06-.94-1.5-.4-1.44,0-1.67.06-.06.56-.5.67-.67.67-1.11-.11-.22-.17-.89-.17-1.06-.11-1.72.06-1.5.06-1.94-.39.56-.06-.94.44-2.28.5-2.61.06-.28.06-.56v-2.67c0-.39.11-.06-.06-.72s-.61-2.06-.67-2.67-.39-3.61-.39-3.61c0,0-.22.11.06-.33s.39-1.56.5-1.83.19-.46.11-.89-.17-2.06-.17-2.06c0,0,.17-.67.5-.78s6.28.28,6.28.28Z"/>
    <path class="cls-1" d="m207.97,245.01c.29.12.42.12,1.25.62s.96.25,1,.92-.38.38,0,.83.08.54.96.88.08-.25,1.12.46,1.38.92,1.88,1.17-.46-.79,1.17.62,1.33.83,1.62,1.42.04-.17.29.58.17,1.54.46,2.21.17.54.38,1.08-.29.54.46.92.83.08.96.75-.38.58,0,1.17-.04-.17.5.92.62.21.54,1.08-.07.67.03,1.21-.4,0,.47.79.75.75,1.17.88.33.04.83.46-.04.12.88.75.46-.17,1.33,1.04.92.38.88,1.5-.33.08-.38,1.88-.29.75-.04,2.42.46.38.25,2,.21.67-.38,2.08-.46.67-.67,1.67.04.08-.25,1.42-.38,1.33-.38,1.92-.08-.04,0,1.33-.33.71.25,1.75,0,.54.83,1.46-.17.08,1.08,1.21,1.17,1,1.58,1.75l.42.75s.38,1.42.5,1.54.12-.21.21.38,0,.21.12,1.29.12,1.33.25,1.92,0,.17.29.92.13.62.42,1.29.04.08.42,1.04.42.38.42,1.29-.42,1.38,0,2.25.42.25.62,1.46-.04,2.96.12,3.54.33,1.33.33,1.33c.29.38.21.37.71.79s.75.46,1.12.83.37.08.46.58-.04.71,0,1.21-.17.38.04,1.17.08.46.42,1.46-.13.62.79,1.5,1.17,1.04,1.46,1.58.29.75.29,1.29-.5.46,0,.96.25.04.96.88.71.71.75,1.17,0,.29.62,1.33.46,1,.67,1.5.29-1.29.29,1-.38,2.21-.17,3.38.25.04.42,2.04.12,2.08.17,2.46.04.42-.25,1.62-.58,1.17-.79,2.17-.75,2.21-.75,2.21c0,0-.08.29-.46.58s-.79.42-.92,1.04-.17.88,0,1.33.42-.04.29,1.38-.25,1.71-.33,2.08.08.88-.04,1.04-.83.75-.92,1.17.5.46-.33,2.17-1.33,2.46-1.62,3-.79.62-1.04,1.08-.42.38-.5.96-.83,1.12-.83,1.12c0,0,.42-.33-.25.21s-1.67,1.21-1.83,1.42-.17-.08-.58.62-.33.42-.62,1.21-.54.62-.75,1.46-.25.88-.5,1.58-.17,1-.58,2-.37.83-.92,1.67-1.33,1.5-1.33,1.5c0,0-.31.04-.72.58s-.7.42-1.16,1.08-.54.46-.88,1.21-1.25,1-1.25,1c0,0-.67.25-.96.71s-.29.54-.67,1.04.5.33-.79,1.04-2.12.92-2.38,1.08-.33-.33-.96.75-1.08,1.29-1.12,1.42-1.04,2.88-1.04,2.88c0,0-.13-.21-.29.25s-.54.96-.71,1.79-.17.96-.25,1.5-.38.62-.54,1.29-.46.83.25.75.92,0,1.17.02.29.52.29.81.08.38-.04.83.5-.21-.58,1.21-1.37,2.08-1.42,2.42-.17,1.08-.17,1.08c0,0-.17.25.12.79s.42.38.62,1.21.21.88.21,1.33-.08.75.04,1.29.42.75.25,1.29-.25.58-.79,1.25-.75.96-.75,1.29-.08.04-.04.79.71,2,.79,2.12.04.29.08.88-.46.29.17,1.5.67.54.79,1.75-.25,1.54.08,2.21.17.58.67,1.33-.5,0,.96,1.21,1.87,1.79,2.29,2.33-.12-.71.96,1.54.88,2.21,1.38,2.67.54.79,1,.96.54.42,1.25,1.04.88.96.88,1.25.96.33-.17.71-2.21.42-2.62.38-1.83-.08-2.38-.17-1.42-.21-2-.58-1.79-1.29-2.12-1.54-1.29-1-1.75-1.29-.75-.54-.96-.79-.54-.58-.96-1.08.33.54-1.12-1.46-2.04-2.42-2.04-2.42c0,0-.71-.67-.92-1.04s-.92-1-1.08-1.46-.5-1.17-.75-1.38-1.21-1.21-1.42-1.42-.33-.17-.79-.83-1.17-1.58-1.29-1.83-.37.17-.79-1.42.42.08-.54-2.25-1-2.38-1.42-3.25.04-.08-.67-1.33-.71-.92-1.5-2.92-.46-1.88-1.38-3.42-.83-1.17-1.25-2.17-.58-1.33-.83-2.04-.12-.12-.62-1.38-.83-1.75-.96-2.21-.29-.17-.33-1.08.29-1.13,0-1.58-.21.04-.62-1.12-.92-2.46-.96-2.71-.21-2.33-.21-2.33l-.38-1.46-1.12-2.92s-.42-.5-.58-.75-.33.33-.5-1.17.25-1.42,0-2.25-.5-.83-.42-1.83-.12-1.17-.02-2.08.1-1.92-.4-2.75-1.33-1.25-1.33-2.08.17-1.17.58-2.08.67-2,.67-2.42.08,0-.08-1.75-.33-2.08-.33-3,.08-1.92.17-2.58.25-1.17.25-1.58-.17-.75.08-1.5.67-1.33.75-2.67,0-.33-.08-1.92-.08-1.58-.08-2.67-.42-.75-.08-2.75.5-2.83.67-3.33.42-1.08.58-1.42,6.71-.46,6.71-.46c0,0,.21.62.21.92s-.54.87-.62,1.17-.21.75-.17,1.25.08.33-.17,1.25-.58.79-.58,1.54-.13.92.17,1.58.42-.29.25,1.96.08,1.46-.33,3.58-.54,1.83-.54,2.5-.04,1.17-.08,1.67-.13.75-.17,1.5-.29,1.29-.21,1.83.46.96.46,1.25.04.87.04,1.46.12.17-.08,1.33-.29.79-.21,1.38.17.38.21,1.38-.12,1.42.08,2.04.5,1,.75,2.5.79,1.5.88,1.83.5,1.29.54,1.46.17.62.33.96.79,1.29,1.08,1.42,1.12.29,1.5.62.38.67.88,1.04,1.38.67,1.5.75.08.29.42.04.21-.38.67-1.04.92-1.12,1.21-1.42-.33.25.58-.71,1.04-1.12,1.33-1.42.13-.33.46-.42.75-.62.96-.67.21-.25.92-.08,1.29.29,1.58.5.46.67.21,1-.46.25-.83.83-.62,1.5-.62,1.71-.21.21-.33.62-.54.58-.04,1.04,1.12.83,1.38,1,.75.38.92.38,1.08-.58,1.46-.67.29-.29.96-.04,1-.12,1.67-.12.92-.29,1,.25-.42,1.04.25,1.17.62.21,1.58-.12,1.29-.42,1.75-.92,0-1,.83-1.21,1.42-.29,1.62-.42-.75,1.54.83-.46,1.42-1.46,1.71-2.21-.21-1.04.54-1.96,1.17-1.46,1.79-1.88.67-.62,1.12-1.04.58-.87.92-1.42.83-1.04.96-1.67-.08-.83.54-1.42.58-.54,1-1.04.67-1,1-1.62.67-1.46.79-1.62-.46.58.58-.88.83-1.75,1.5-2.33.96-1.12,1.25-1.5.58-.67.71-.92.75-.75.88-.88.67-.29.79-.62.25-.83.33-1.29.42-1.79.46-2.58.04-1.54.04-1.54c0,0-.04-.29.29-.96s.58-1,1-1.88.5-1.12.58-1.33.46-1.08.5-1.79,0-1.25-.04-1.38,0-.42,0-1.33-.08-1.25-.08-1.25c0,0,.17-.92-.04-2.08s-.33-1.92-.33-1.92c0,0,.33-.42,0-.92s-1.21-1.42-1.21-1.42c0,0-.04-.12-.33-.33s-1.08-1.83-1.08-1.83c0,0-.04.17-.46-.38s-.63-.79-.71-1.12-.71-1.62-.71-1.62c0,0,.08-.17.08-.71s.04-1.29-.12-1.79-.54-.88-.62-1.08-.42-1-.33-1.17.29-.17.08-.38-1.21-1.17-1.33-1.33-.08-.08-.42-.54-.67-.67-.75-1.04-.21-.25-.21-1.17-.04-.75-.04-1.38-.04-.79,0-1.71.04-1.71,0-2.04-.42-1.04-.42-1.42-.04-1.08-.04-1.08c0,0,.12.04,0-.58s-.33-.63-.33-1.54-.12-1.88-.12-1.88c0,0,.38,1.5,0-.46l-.38-1.96-.38-1.83-.54-1.38s-.04.04-.25-.46-.38-.67-.62-1.08-.04-.29-.33-.58-.88-.67-1-.88-.54-.67-.75-1.04-.46-.58-.71-1.29-.83-2.13-.83-2.54-.08-.92-.08-1.08-.21-.83,0-1.71.17-1.33.29-1.42.29-.21.46-.79.25-1.33.25-1.58-.17-.12-.04-1.12.21-1.17.29-1.5.12-1.96.12-2.17-.04-.38-.21-1.46-.29-1.58-.29-1.58c0,0,.08.08-.54-.58s-.96-.92-1.08-1.04-.04-.29-.83-.83,0-.42-1.29-.79-1.5-.25-1.79-.62-.46-.12-.62-.83-.21-.54-.17-1.04.5-2.71.5-2.71l-.46-.92-.92-1.08s.04-.46-.04-.67-.5-1.42-.58-1.54l-.5-.75c-.08-.12-.33-.71-.75-.83s-.87-.33-1.08-.62-.63-.83-.79-1-.52-.38-.82-.5-1.43-.5-1.63-.54-.71-.25-.96-.38-1.17-.72-1.17-.72c0,0-.13-.4-.29-.53s-1.29-.33-1.29-.33l-.5-.54-.5-.58s-.08-.46,0-.62,2.29-1.5,2.29-1.5Z"/>
    <path class="cls-1" d="m189.49,233.61v3.11c0,.17-.22,1-.28,1.44s-.11.39-.33,1.22-.11.72-.39,1.44-.39.44-1,1.56-.56,1-.94,1.83-.39.78-.67,1.78-.39,1.72-.67,2.5-.89.56-1.17,1.94-.39,1.61-.33,2.72-.31.89-.01,2.28.18.72.68,3.06.11,2,.78,3.72.67,1.56,1.11,2.83.33.89.83,2.17.44.83.89,2.28.39.83.5,2.56-.06,1.06.28,3.28,0,6.11,0,6.28.28,1.56.28,2.17-.06.28-.06,1.39-.11.83,0,2.11.28.67.5,2.17.28.94.22,2.61.15,1.56.02,2.94-.24,1.33-.13,2.94,0,1.94-.06,2.89,0,1.44-.06,2.83-.06.89-.11,2.5-.39,3.94-.5,4.44-.11-.56-.17,1.28.22,1.5-.28,3.28-.89,1.94-1.11,3.11-.17.11-.28,2.22-.29,1.44-.37,2.78-.34,3.06-.43,3.92-.04.64-.26,1.36,2.89.89,3.5.89.83-.06,1.5-.33,1.22-.22,1.47-.6.14-.21.39-.75.08-.43.25-1.04.28-.67.33-1.11.33-.61.33-2.06-.89-.61,0-2.28,1-1.56,1-2.56,0-2.44-.11-2.83-.22-1.06-.28-1.44.11-1.56.11-2-.11-1.39,0-2,.5-1.94.56-2.33.17-1.78,0-2.06-.1-1.56.09-2.33.13-1.11.25-2.44-.11-2.89,0-3.17-.05-.83.03-1.17-.02-2.72,0-3,.04-1.61.03-2.61.06-1.44,0-2.5-.17-1.67-.34-2.28-.17,1.17-.39-2-.28-3.56-.28-4.11-.17-.11-.06-1.56-.06-1.39.11-2.72.28-1.11.33-2.56.33-.72-.11-2.94-.39-2.06-.56-2.61,0,.22-.56-1.56l-.56-1.78s-.33-.17-.56-1.33-.33-2.11-.33-2.11l-.17-2.33s.22.17.22-.28-.33-1.39-.33-1.61-.11-.5-.17-1-.22-2.22-.22-2.5.17-1.11.28-1.72-.28-1.17.22-1.61.83-1.22,1.11-1.78.17-1.39.28-1.83.28-.97.56-1.6.56-1.18.83-1.57.4-.28.7-1.11.74-2.5.8-2.78,0-.17,0-.78-1.33-2-1.78-2.67-5-2.5-5-2.5Z"/>
    <path class="cls-1" d="m273.93,218.81v-1.12c.58-.62.5-.67.88-.75s.67-.54.92-.79,1-1.62,1-1.62c0,0,.88-1.08,1.04-1.25s-.08-.13.83-.17.58.62,1.71,0,.79-.38,1.12-.62,2.21-.96,2.21-.96c0,0,.29-.58.96-1.12s-.17-.13,1.17-1.04,1.12-1.08,1.88-1.33.58.04,1.33-.75.96-1.12,1.33-1.71-.83-.17.38-.58,1.62-.62,1.88-.96.58-1.25.75-1.54.5-.33.75-1-.04-2.17.08-2.54-.04-1,.71-.25-.21,1.17.75.75,1.12-.45,1.29-1.1-.17-.11.17-1.61.75-2.58.92-3,.17.21.25-.83.12-3.37.12-3.71-.29-.33,0-1.12.62-1.12.79-1.5.29-.29.5-1.33.4-4,.4-4c0,0,.11-.11.28-.61s.44-1.22.56-1.67.17-.56.28-2.06.06-2.61.06-3.06-.17-.94,0-1.83.22-1.78.28-2.5-.36-1.72-.26-2.83.16-2.17.27-2.94.38-1.61.49-2.33.06-.67.17-1.89,0-2.58,0-2.58c0,0,.1-1.31.05-1.69s4.9-2.96,5.06-2.79,1.09,2.15,1.09,2.15c0,0-.15,1.92-.37,3s-.06,1.8,0,2.08,0,.72-.06,1.17,0,.28-.06,2.17.06,1.17-.28,2.61-.39,1.72-.39,2.83-.22.06,0,2.33.83,2.11.33,3.94-.89,4.44-.89,5,.11.39-.11,1.39-.56,1.06-.67,2.33-.22,2.56-.44,3.44-1.44,1.94-1.44,2.11,0,.06-.06,1-.11,1.22-.17,2.44-.22,1.56-.33,2.78-.11.78-.22,2.22.67-.06-.22,3.67c-.89,3.72-1.17,3.5-.78,4.39s.5,1.11.56,1.78.33,3.56.44,4.5-.06.17.11,1.5.39.56.39,2.83-.28,2.28-.39,2.94,0,.94-.17,1.83.72.94-.56,2.06-1.89,1.5-2.11,1.5.61.61-1.61.33-2.61-.17-3.28-.56-.56-.44-2.06-1.17-.72,0-2.11-.78-2.11-1.33-2.28-1.5-1.72-.72-2.17-1-1.06-.22-1.11-.78.06.39-.06-.89,0-1.39-.33-1.67-2.17.44-2.33.89.5-.5-.17.44-1.39,1.28-1.89,1.33-1.22-.22-1.83.28-.72.89-1.44.67-1.11-.39-1.11-.39c0,0-.22-.61-.06-.83s.11-.22.39-.5.28-.94.78-1.28.61-.67.61-.67c0,0-.28-.44-.83-.17s-.83.11-1.17.67-.56,1.28-.61,1.5-.06.22-.61.44-1.28-.03-1.28-.03Z"/>
    <path class="cls-1" d="m185.71,490.5c.17.06,1.39.17,1.61.17s.17.06.67,0,.67.22,1.5-.17.72-.5,1.72-.83.83-.61,2.11-.72.56,0,1.83-.22,1.5-.28,2.17-.5,1.44-.44,2-.67-.44.33.89-.39,2.17-1.11,2.89-1.5-.11-.06,1.06-.61.56-.39,2.28-1.11,1.61-.78,2.89-1.33,1.17-.44,1.78-.83,1.11-.78,2.06-1.33.94-.5,1.22-.78.44-.61,1.67-1.33,1.44-.89,1.67-1.22.56-1,.61-1.17.22-1,.22-1c0,0-.44.39-.67-1.61s-.56-2.28-.78-2.94.39.17-.5-1.39-.5-1.06-1.06-1.89-1.06-1.28-1.5-2,.11.89-.78-1.17-.92-2.33-1.24-2.83-.04-.28-.76-1.28-.33-.39-1.11-1.39-1.06-1.28-1.56-1.89.28.28-1-1.22-1.72-1.56-2.22-2.33-.61-.61-.67-1-.11-.67-.5-2-.67-1.89-.89-2.94.33,1.22-.5-2.11-.89-3.33-1.28-4.94-.44-1.22-.89-3.11-.56-1.89-.83-3.17-.78-4.11-.78-4.61-.06-1.06-.06-2,0,1.5-.11-2.72-.36-6.5-.36-6.5c0,0,0,.21.04-.79s-.04-1.92-.04-2.71-.08-1.25,0-2.46.08-1.38.08-2.25v-2.29c0-.75-.04-.75,0-1.75s.04-1.54.17-2.38.12-.92.25-1.83.42-2.58.42-2.58l-6.33-13.63-.44,7.5s.06-.72-.06.72-.39.94-.39,2.78.06.06,0,2.44-.22.72-.22,3.67-.11,3-.11,4.94,0-.61,0,2.44-.17,1.33,0,3.67.06,2.22.28,3.72-.06.33.39,2.61.28,1,.5,3,.06,1.11.28,3.39.17,1.56.22,2.56-.39-.44.11,2.72.33,1.33.61,3.72.06,1.11.39,3.28.5,3.06.67,4.44-.11,0,.22,1.72.33,2.22.61,3.44.61,6.17.61,6.17c.28,1.67.39,2.33.67,3.17s.56,1.39.83,2.22l.67,2c.28.83.22.89.5,1.83s.33,1.22.61,1.83.28.89.39,1.33-.06,1.5-.06,1.5l-2.5.17s-.44.28-.72.56-1.39.67-1.72.94-.61.89-1.06,1.56-1,.89-1.39,1.44-.78.83-1.39,1.72-1.06,1.17-1.33,1.56-1,1.11-1.33,1.5-.61.5-.89.94.11-.11-.56.78-.94.89-1.28,1.61-.33.72-.72,1.67-.28,1.17-.72,1.67-.44.56-.78,1.17-.56,1.56-.67,1.83.17.5,0,1-.22.5-.03.94.53.67.92.89,1.5.5,1.5.5Z"/>
    <path class="cls-1" d="m212.88,419.61s.61.49.83,1.11.28.72.56,1.22.17.05.5.83.33.67.39,1.33.17.56,0,1.28-.22.78-.28,1.5-.77.61.37,1.33,1.19.94,2.19,1.61,1.44,1.22,1.72,1.44.94.78,1.17.83,1.06.22,1.39,0,1.22.06,1.39.11.39-.06,1,.39.61.67.83,1,.33.39,1.11.39.67-.17,1.22,0,1.33.72,1.56,1-.11.78.78.72.33-.22,2.17-.11,2.67-.5,3.39.67,1,1.66,1.28,1.69.61.26,1.22.42.72.06.83.33-.28,1.61,0,1.78-.17.67.94,1,3.56-.22,3.72,0,1.11.39,1.89.61,1.83.67,2.61.78,1.44,0,1.89,0,.11.54.89.05.72-.83,1.89-.83,2.88-.22,2.88-.22c0,0,.12.06.89.17s1.17-.11,1.78-.06.28.28,1.61-.11.33-.17,1.33-.39,1.83-.39,2.22-.39-.17.11,1.17-.22,1.89-.83,2.11-.89.83.06,1.22-.89.39-.84.56-1.14.61-.8,1.72-1.36,1.61-.78,2.06-1.39.44-1,.72-1.39-.11-.22,1.33-1.28,1.94-1.78,1.94-1.78c0,0,.11-.39.61-.83s.94-.72,1.67-1.28,1.11-.78,1.83-1.83.28-.94.94-1.56,1.17-1.11,1.83-1.61,1.06-.89,1.72-1.83,1-1.56,1.06-1.72.06-.28.67-1,.83-.83,1.44-1.06.83-1.06,1-1.5.39-1,.44-1.17.17-.17.78-1.28.83-1.39,1.11-2.22.33-1.11.5-1.33.17-.22.61-.94.72-.56,1.28-2.83.89-2.72,1-3.44-1,4,.56-2.83l1.56-6.83s-.89.22-1.33.5-1.67.5-2.11,1.56-.44.94-.78,1.5-.56.83-.83,1.61-.56,1.44-1.11,2.06-.67.61-1.06,1.39-.61.94-.78,1.78-.44,1.17-1,1.78-1,1.22-1.17,1.5-.33.11-.83,1.17-.56,1.06-.72,1.78,0,1.11-.22,1.33-.33.17-.67.72-.89.89-1.44,1.56-.78.94-.94,1.22.06-.78-.83,1.11-.94,1.87-1.06,2.18-.28.48-.56.82-.72.5-1.11,1.11-2.44,1.83-2.44,1.83c0,0-1.83,1.06-1.94,1.33s-.17.44-.33.89-.39,1.06-.56,1.5-.44.78-.61.89-.5.5-.89.83-.5,1.06-.72,1.33-1.83,1.11-2,1.33-.78,1-1.11,1.39-.94.67-1.61,1.22-1.28,1-1.89,1.28-1,.5-2.06.72-.83-.17-1.72.33-1,.61-1.83.83-2,.33-2.44-.06-1.08-.61-1.08-.61c0,0-.81.06-1.36.17s-1.56.06-2.11.11-2.06.11-2.06.11c0,0-.06-.22-.89.44s-1.11,1.72-1.83.94-.78-.72-.89-1.11.28-.28-.33-1.33l-.61-1.06-.72-.28s-.44,0-.94-.06-.85.22-1.73.11-.6,0-1.27-.28-1.56-.78-1.61-.94,2.5,1.11-.78-.44-3.78-1.89-3.78-1.89c0,0-1.72-.44-2-.61s-.78-.06-1.78-1.06-.89-1.06-1.28-1.28-1.72-.67-2.22-1-1.72-.72-2.06-.94-1.06-.44-1.39-1.06-.89-1.17-.89-1.17c0,0-.11-.44-.33-.83s.33-.22-.56-.78-2.06-1-2.72-1.39-3.11-1.17-3.56-1.06-2.11.89-2.11.89Z"/>
    <path class="cls-1" d="m286.35,364.14s.58,0,1.25.42.67.67,1.58,1.25,2.58,1.08,3.08,1.5.42.92.58,1.33-1.33-.58-1.33-.58c0,0-.92-.05-.67.68s.17.82,1.33,1.73.75.25,1.58,1.58,1.42,2.58,1.5,3.25.08,1,.58,1.92.42,2.5.33,3.25-.21.75.06,1.42.44,1,.6,2.17.25,1.67.33,2.92.08,1.42.5,2.75.33,1.25.5,2.58.5.75.5,3.42-.17,2.67-.17,4,.42,2.25.17,4.17-.17,1.08-.33,3.17.33,4.58.33,5.08-.08,1.25.08,2.83.08.42,0,3.08-.58,6.42-.58,6.42c0,0-.17-.17-.25.83s-.08,1.83-.08,2.58-.17,1-.17,1.58-.42,1.25-.67,1.67-.5.33-.08,1.33.33,1.58.58,2.58.5,1.41.17,2.91-.58,2.51-.83,3.09-.83,1.68-.92,2.09-.08,1.49-.08,2.24.08,1.33,0,2.17-.08,1-.17,2-.25,2.83-.25,3.33,0,.5-.25,1.83-.17,1.67-.58,3.33-.83,2.5-1.17,3.92-1.33,3.33-1.58,3.75-.67,1.83-.83,2.5-.25,1.75-.08,2.67-.08.08.17,1.5,2.42,1.67,2.42,1.67c0,0,.75.75,1.67,1.83s.61.75,1.31,1.17,1.36.83,1.69,1.08.08.5,1.08.92,1.75.25,2.83.75,2.08.83,2.92,1.5,0-.42,1.67,1.42,1.75,2.17,2.08,2.5.92,1.33,1,1.67-.08.5-.42,1.08-.33,1.17-.67,1.58-.75.81-.92,1.16-1.83,1.26-2.58,1.34,2.08-.33-2.25,0-5.25-.31-5.58.01-2,.19-3.42.09-4.58-.43-5-.52-.25-.02-2.33-.93-3.33-1.07-4.17-1.41-1.83-.5-3-1-3.08-1.08-3.67-1.17-1.5-.25-2.25-.83-1.17-.08-1.42-1-.42-1.42-.42-1.75-.17-.67.42-2,1.5-3.17,1.83-4.25.75-2.92.83-3.25.17-.92,1.08-2.75,1.42-2.92,1.58-3.17-1.25.58,1.67-3.08l2.92-3.67s.92-1,1.5-1.83.75-1.17,1.17-1.67,1.67-2.5,1.67-2.5c0,0,.67-1.42.75-1.83s-.33,1,.33-1.75c.67-2.75.83-3.92,1.17-5.17s.58-2.33.58-2.33c0,0-.58,2.67.5-2.17,1.08-4.83.67-6.33,1.04-6.58s.29.33.71-1.67.33-1.25.58-2.92.67-5.17.67-5.5-.17.25,0-1.17.25-1,.33-2.92.17-1.92.08-3.75-.17-3-.17-3c0,0-.25,1.67-.17-1.25s.08-3.92.08-3.92c0,0-.17-1.33-.17-1.92s-.08-.42-.08-2.17.17-5.75.17-5.75l-.83-5.33s.5.75,0-1-1.92-3.42-1.92-3.42v-4.17s-.08-.75-.08-1.08-.42-1.75-.42-1.75l-.25-1.25s.08-.17,0-.42-.58-1.42-.58-1.42c0,0-.25-1-.33-1.42s-.58-1.33-.58-1.92,0-1.5-.17-2.42-.58-3.25-.67-3.5-1-1.17-1.08-1.5-.5-1.08-.58-1.33-.42-1.58-.42-1.58v-1.17l1-.5.5-.33Z"/>
    <path class="cls-1" d="m296.82,390.78s.82-1.17.72-1.51.03.19-.1-.34.26-1.31.54-2.04.44-1.56.78-2.22.28-.89.72-1.83,1-2.28,1.11-2.94.33-2.39.39-2.61-.17-.5,0-.83.22-1.22.28-1.5.33-1.78.33-1.78c0,0,.22-.33.44-1.33s.11-1.28.44-2.5.61-2.56,1-4.22.33-1.67.44-3.11-.06-1.61.22-2.56.56-1.44.72-2.17,0-.78.5-2.06.44-1.22.67-2.11.44-.56.61-2.94.44-3.11.72-5.56.28-2.83.28-3.06-.17.72.44-1.78.28-.83.61-3.39.33-2.56.39-3.61-.39.89,0-1.83.39-3.94.39-3.94l-.28-4.33s-.06.44,0-.5.39-2.28.28-3,.11-2.17,0-2.89-.89-1.56-1.11-2-1.06-2-1.06-2.44.22-3.5.22-3.5v-1.22c0-.44-.11-1.22-.5-2.67s-1.11-2.17-1.39-2.83-.94-.67-1.06-2-.11-2-.28-2.94-.5-1.39-.5-1.39l-.65-5.33s.4.61,0-.44-.79-2.33-.96-2.94-.67-2.33-.72-4.06-.06-3.22-.06-3.78.17-1.22,0-2.22-.67-2.39-.67-2.39c0,0-.72-.33-.72-1.11v-3.89s-.22.06-.22-.78-.17-1.89-.33-2.44-.44-1-.61-1.61-.56-1.89-.56-1.89c0,0-.22-.11-.33-1.11s-.11-1.94-.33-2.67-.61-1-.61-1.17-.28.17-.22-1.17.17-2.72.17-3.17-.35-.28-.17-1.61.1-1.28,0-2.83-.27-2.83-.33-3.33-.17-.56-.22-1.56.22-.78,0-1.28-.5-1.72-.5-3.22.22-1.22,0-1.89-.78-2.17-1-3.39-.22-1.39-.28-1.94.33.33-.28-1.44-.83-2.22-1.11-2.94-.89-2.22-.89-2.22l-.24-2.89.3-2.22s-.72.44,2.56-.28,5.92,1.83,5.92,1.83c0,0,.74,3.33.74,3.72s-.28,1.06-.28,1.61-.11.28.22,1.22.11.44.44,1.44.28.94.22,2.11-.28-.06-.06,1.56.61,1.39.17,2.44-.67.61-.94,2.06-.49.33-.52,1.94-.19.11,0,1.83-.59-.28.19,1.72.72-.06.78,2-.06.89-.06,2.44-.06,1.83.17,2.61.33-.06.33,1.22,0,.94-.11,2.11-.61.5,0,1.67,1.28,2,1.56,3.11-.06.72,0,2.44-.11,1.17.61,2.83.28.56.72,1.67.44,1.78.33,2.67-.17,1.72-.11,2.44.11.44.33,1,.72,1.78.78,1.94.28,1.44.39,1.83.22.72.22,1.17,0-.83,0,.94.11,1.89.44,2.94.89.61.44,1.89-.61,1.67-.5,3.22.44,2.28.44,2.28l.56.89s.17.33.06.94-.17.5-.33,1.28-.39,1.5-.22,2.11-.44.22.44.94,1.33.44,2.17,1.67,1.11,2.44,1.28,3.33.22-.44.33,1.94-.17,1.94.33,3,.61,1,.89,1.89.67,1.83.5,2.61-.33,1.61-.22,2,.83,1.39,1.11,1.89,1.17,5.89,1.17,5.89c0,0-.06-.22,0,1.11s-.56,3.61-.56,4.56-.39.56,0,1.44.56.61.56,1.72-.17,2.17-.39,2.78-.33,1.5-.44,2.11.06,1.06-.11,2.11-.39.72-.33,2.11.44.78.33,2.61.17,4.44.17,4.44c0,0,.06,0-.06.61s.17.22-.44,1.17-.44.5-.61,1.22-.33,1.39-.56,1.78-.28,1-.28,1.28-.17-.83.11.67.28,1.5.22,1.89.56-1.28-.06.61-.5,1.78-1,2.33-1.39,1.33-1.61,2.17-.11,1.61-.5,2.06-.61.5-.83,1.22-.83,1.56-.89,2.06.33,1.78.44,2.33-.44,1.5-.56,1.72-.17,2.78-.17,2.78c0,0-.72,1.22-.78,1.44s-.44,1.61-.5,2.5-.11,1.67-.17,2.22-.28.67-.72,1.28-.44.28-.89,1.22-1.29,1.94-1.29,1.94c0,0,0-.06-.32.61s-.61,1.44-.67,1.83-.61,2.11-.94,2.39-.5.44-.89,1.11-.11,1.22-.44,2.28-.67,1.44-.89,2.17-.17,1.06-.39,1.56-.96,1.27-.93,1.39-1.91-.72-1.91-.72l.33-1.72Z"/>
    <path class="cls-6" d="m298.1,108.39s-.17-.58-.58-.75c-.42-.17-1.67-.83-2.25-1-.58-.17-.91-.5-.91-.5,0,0-.92-.75-1.25-1.08-.33-.33-1.24-1.17-1.95-1.58-.71-.42-.88-.67-1.8-1-.92-.33-3.33-1.33-3.33-1.33,0,0-.33-.25-.92-.67-.58-.42-2.42-.81-2.67-1.11s-.5-.47-.92-.47h-1.33c-.33,0-2.83,1.17-2.83,1.17,0,0,.42-1.33-.42,0s-.67.92-1.58,2.42c-.92,1.5-1.17,1.42-1.42,2.12-.25.71-.42.38-.5,1.54s.42.5-.5,1.75-.92.33-1.25,1.67c-.33,1.33-.5,1.58-1.08,2.5-.58.92-.67.75-1.5,1.58-.83.83-.42.25-1.5,1.42-1.08,1.17-1.17.25-1.08,1.17.08.92.42.83,1,.75.58-.08.67-.82,1.58.05.92.87.83.54.5,1.87-.33,1.33-1.25,1.08-.42,2.08s.25,1,.83,1,1.83-1.92,1.83-1.92c0,0,.17,0,.25-.5.08-.5.42-1.83.42-1.83l.33-2.33s.83-.5,1.08-.75.83-.5,1.33-.5.83-.25,1.67.17c.83.42,2.42.83,1.92,0-.5-.83-1.17-1-1.25-1.33-.08-.33-.75-1.08-.17-1.33s.26-.67,1.05-.42c.79.25,1.54,1.08,2.29,1.5.75.42,1.25,1.17,1.25.25s.25-1.08-.58-2c-.83-.92-.75-1.08-1.5-1.42-.75-.33-.41-.42-1.45-.92-1.05-.5-1.38-.08-1.38-1.17s0-1.83.25-1.92c.25-.08.34-.58,1.13-.33.79.25.87.17,1.54.92.67.75.42,1.08,2.5,1.83,2.08.75,2.67,1.42,2.5.5-.17-.92-1.33-1.83-2.17-2.33-.83-.5-.83-.58-1.17-1s-.75.17-.92-.75c-.17-.92-.42-.5-.17-.92.25-.42.92-.67,1.75-.5.83.17.67-.75,2.33.58,1.67,1.33,2.08,1.17,2.58,1.33s.92.42,1.75.42,1.18-.08,2.13.42.95.25,2.2,1.5.17.58,1.5,1.75c1.33,1.17,1.67,1.5,2.67,1.46,1.04-.04,1.19-.07,1.92,0,.84.08,1.2.31,1.31.15.17-.24-.46-.93-.52-1-.31-.34-.95-.9-2.12-1.19Z"/>
    <path class="cls-6" d="m221.93,86.33s-.14-.04-.32-.06-.4-.02-.57.06c-.33.17-.78.22-.94.44s-.44.61,0,1.06.78.28,1.83.72,1.67.5,1.44,1.39-.39,1.28-1.44,1.61-.94,1.39-1.78.39,1.28-1-.83-1h-3.11c-.22,0-.11.33-1-.11s-.61-.28-1.17-.5-2.67-.61-2.67-.61c0,0-.44-.32-1.11-.41s-3.39-.53-3.39-.53c0,0-.61.29-1.22.53s-3,.41-3.17.24,1.06-.11-.58-.44-2.34-.28-2.29,0-1.9.11,1.27.83,3.06.39,4.44.72.89,0,2.17.61.06.61,2.5.89,2-.22,3.56.2,1.28.08,2.28.8,1.33,1.39,1.94,1.67.78.94,1.06,1.28-.78-.06,1.44.39,1.72,1.39,1.56,1.61,1.17.44-1.56.44-2.84-.28-3.31.11-1.13.94-1.19,1.11.28.67.89.78,1.56-.56,2.72-.5,1.44-.31,1.83.51.17,1.99-.89,2.6-1.22-.33-2.22.94-1.28,1.61-1.39,2.44,1.44-.44-.56,1.67-1,1.42-2.44,2.21-2.1,1.12-2.47.68.19-1.89-.31-2-.17.06-1.78-.5-1.78-.56-1.61-.11.06.17.33,1.17.33,1.67.06,2.17-1.44.17-1.56,1.06.33,2.17-.22,2.06-2.67-1.39-2.17-1.89,1.61-1,1.11-1.89-.67-1.72-1.28-1.56-1,1.06-1.06,1.56-.61.94-.17,2.11.89,1.24.44,1.67-2.28-.73-2.28-1.45.5-1.06-.11-1.61-1.94-1.44-2-.39.06,2.67-.56,2.5-.17.06-.61-.17-2.06-.83-2.33-.28.61,1.89-.28.56.11-2.83-1.22-2.56-.67,1.78-2.22.56-1.33-1.56-.83-2.22.67-.33.83-1.56.22-1.89.22-2.67-.67-.44-.22-1.5.78-2.06.83-2.83-.5-2.89-.5-3.06-1.52-1.67-1.54-1.22-.09.89,0,1.83.48,1.83.48,2.44-.28,1-.44,1.89-.11,1.61.17,2.72.03,1.61-.26,2.33-.74,1.89-1.02,2.56-.61,1.39-.72,1.89-.89,1.83-1.11.39.56-3.72.56-3.72c0,0,.11-.28,0-.67s-1.28-1.89-1.28-1.89c0,0-1.11-.28-1.28,0s.22,1.44.22,1.83.19.67-.26,1.5-.4,1.5-.63,2,.06.5-.83.56-1.72-.28-2.39-.61-1.17-.61-1.39-.56-.5.06-.44.67.17,1.67.39,2.39.5,1.22.72,1.61.22.56.67,1.56.11,1.17.89,1.67.17.44,2.17.61,1.17-.33,2.61.33,3.11,1.17,3.83,1.17.61.22,1.22-.78,1-1.94,1.22-2.06.11-.72,1.44-.67,2.78-.5,3.28-1,.44-.83.72-.94.44-.44,1.11-.44,1.67-.83,1.83.17-2.74,1-.2,1.61.98,1.5,2.76.5,2.44-1.28,2.67-1.67.33-.67.72-1.33-.22-.78,1-1.28,1.89-.22,2.39-.28.94-1,1.67-1.44.56-.22,1.89-.72.78-.31,1.61-.79.94-1.26,1.61-1.26.67.11,1.33.28,1.5.28,2.61-.06,1.31-.72,1.66-1.11.62-.28.84-.5.78-.56.89-1.5.06-.94,0-1.72.02-2.22.06-2.72.06.17,0-1.78-.45-3.33-.45-3.56-.17.44.11-1.44.28-1.17.28-1.89-.44-1-.33-1.39.43-1.5.44-1.72-.11-1.28-.44-1.67-.72-.72-.89-.94-.28-.72-.78-.83-1.22-.28-1.22-.28Z"/>
  </g>
</svg>